<svg version="1.1" xmlns="http://www.w3.org/2000/svg" xmlns:xlink="http://www.w3.org/1999/xlink" width="24.8" height="24.8" viewBox="0,0,24.8,24.8"><g transform="translate(-227.6,-167.6)"><g data-paper-data="{&quot;isPaintingLayer&quot;:true}" fill-rule="nonzero" stroke="none" stroke-width="1" stroke-linecap="butt" stroke-linejoin="miter" stroke-miterlimit="10" stroke-dasharray="" stroke-dashoffset="0" style="mix-blend-mode: normal"><g><path d="M227.6,180c0,-6.84833 5.55167,-12.4 12.4,-12.4c6.84833,0 12.4,5.55167 12.4,12.4c0,6.84833 -5.55167,12.4 -12.4,12.4c-6.84833,0 -12.4,-5.55167 -12.4,-12.4z" fill="#0fbd8c"/><g fill="#ffffff"><path d="M238.5,184.9c0,-0.88366 0.71634,-1.6 1.6,-1.6c0.88366,0 1.6,0.71634 1.6,1.6c0,0.88366 -0.71634,1.6 -1.6,1.6c-0.88366,0 -1.6,-0.71634 -1.6,-1.6z"/><path d="M235.9,182.9c-0.2,0 -0.4,-0.1 -0.5,-0.2c-0.4,-0.3 -0.5,-0.9 -0.2,-1.3c1.1,-1.6 3,-2.5 4.9,-2.5c1.9,0 3.8,0.9 4.9,2.5c0.3,0.4 0.2,1 -0.2,1.3c-0.4,0.3 -1,0.2 -1.3,-0.2c-0.8,-1.1 -2.1,-1.7 -3.4,-1.7c-1.3,0 -2.6,0.7 -3.4,1.7c-0.2,0.3 -0.5,0.4 -0.8,0.4z"/><path d="M247.4,179.4c-0.3,0 -0.5,-0.1 -0.7,-0.3c-1.7,-1.9 -4.1,-3 -6.6,-3c-2.5,0 -4.9,1.1 -6.6,3c-0.3,0.4 -0.9,0.4 -1.3,0.1c-0.4,-0.3 -0.4,-0.9 -0.1,-1.3c2,-2.3 4.9,-3.6 8,-3.6c3,0 6,1.3 8,3.6c0.3,0.4 0.3,1 -0.1,1.3c-0.2,0.1 -0.4,0.2 -0.6,0.2z"/><path d="M235.9,182.9c-0.2,0 -0.4,-0.1 -0.5,-0.2c-0.4,-0.3 -0.5,-0.9 -0.2,-1.3c1.1,-1.6 3,-2.5 4.9,-2.5c1.9,0 3.8,0.9 4.9,2.5c0.3,0.4 0.2,1 -0.2,1.3c-0.4,0.3 -1,0.2 -1.3,-0.2c-0.8,-1.1 -2.1,-1.7 -3.4,-1.7c-1.3,0 -2.6,0.7 -3.4,1.7c-0.2,0.3 -0.5,0.4 -0.8,0.4z"/></g></g></g></g></svg>