<?xml version="1.0" encoding="utf-8"?>
<!-- Generator: Adobe Illustrator 16.0.0, SVG Export Plug-In . SVG Version: 6.00 Build 0)  -->
<!DOCTYPE svg PUBLIC "-//W3C//DTD SVG 1.1//EN" "http://www.w3.org/Graphics/SVG/1.1/DTD/svg11.dtd">
<svg version="1.1" id="Layer_1" xmlns="http://www.w3.org/2000/svg" xmlns:xlink="http://www.w3.org/1999/xlink" x="0px" y="0px"
	 width="96.9px" height="124.5px" viewBox="0 0 96.9 124.5" enable-background="new 0 0 96.9 124.5" xml:space="preserve">
<rect id="background" x="0" fill="none" width="96" height="124"/>
<g>
	<path d="M13,1.5v13L1.7,8L13,1.5z"/>
	<path d="M17.5,3h13L24,14.3L17.5,3z"/>
	<path d="M35,1.5v13L46.3,8L35,1.5z"/>
</g>
<g transform="translate(0, 16)">
	<path fill="#FFFFFF" d="M13,1.5v13L1.7,8L13,1.5z"/>
	<path fill="#FFFFFF" d="M17.5,3h13L24,14.3L17.5,3z"/>
	<path fill="#FFFFFF" d="M35,1.5v13L46.3,8L35,1.5z"/>
</g>
<g>
	<circle fill="none" stroke="#879191" stroke-width="2" stroke-linecap="round" cx="16" cy="108" r="11.5"/>
	<circle fill="#879191" cx="16" cy="108" r="4.3"/>
	<path fill="none" stroke="#879191" stroke-width="2" stroke-linecap="round" d="M28,108h3"/>
	<path fill="none" stroke="#879191" stroke-width="2" stroke-linecap="round" d="M1,108h3"/>
	<path fill="none" stroke="#879191" stroke-width="2" stroke-linecap="round" d="M16,120v3"/>
	<path fill="none" stroke="#879191" stroke-width="2" stroke-linecap="round" d="M16,93v3"/>
</g>
<g>
	<circle fill="none" stroke="#879191" stroke-width="2" stroke-linecap="round" cx="48" cy="108" r="15"/>
	<path fill="none" stroke="#879191" stroke-width="2" stroke-linecap="round" d="M48,101.6V114.4"/>
	<path fill="none" stroke="#879191" stroke-width="2" stroke-linecap="round" d="M41.6,108h12.8"/>
</g>
<g>
	<circle fill="none" stroke="#879191" stroke-width="2" stroke-linecap="round" cx="80" cy="108" r="15"/>
	<path fill="none" stroke="#879191" stroke-width="2" stroke-linecap="round" d="M73.6,108h12.8"/>
</g>
<path d="M57.7,19.1c0.1-0.2,0.9-0.1,1-0.1s0.1,0.1,0,0.2c-0.1,0.1-0.1,0.1-0.2,0.2c-0.3,0.4-2.8,3.9-4.399,8.4H53.3
	c0,0-1.199-2.2-2.6-3.2c-0.2-0.1,0.8-0.5,1-0.4c0.2,0.2,1.4,1.5,1.9,2.5C53.7,26.9,55.2,22.7,57.7,19.1z"/>
<g>
	<polygon fill="#9BA5A5" points="33.8,41.8 30,38 16,38 12.2,41.8 1.8,41.8 1.8,46.3 44.2,46.3 44.2,41.8 	"/>
	<path fill="#9BA5A5" d="M1.8,49.4v4.5h2.9V85c0,3.9,3.2,7.1,7.1,7.1H34.1c3.899,0,7.1-3.199,7.1-7.1V53.8h2.9v-4.5H1.8V49.4z
		 M16.2,83.2c0,0.8-0.7,1.5-1.5,1.5s-1.5-0.7-1.5-1.5V61.7c0-0.8,0.7-1.5,1.5-1.5s1.5,0.7,1.5,1.5V83.2z M24.5,83.2
		c0,0.8-0.7,1.5-1.5,1.5s-1.5-0.7-1.5-1.5V61.7c0-0.8,0.7-1.5,1.5-1.5s1.5,0.7,1.5,1.5V83.2z M32.8,83.2c0,0.8-0.699,1.5-1.5,1.5
		c-0.8,0-1.5-0.7-1.5-1.5V61.7c0-0.8,0.7-1.5,1.5-1.5c0.801,0,1.5,0.7,1.5,1.5V83.2z"/>
</g>
</svg>
