<?xml version="1.0" encoding="utf-8"?>
<!-- Generator: Adobe Illustrator 16.0.0, SVG Export Plug-In . SVG Version: 6.00 Build 0)  -->
<!DOCTYPE svg PUBLIC "-//W3C//DTD SVG 1.1//EN" "http://www.w3.org/Graphics/SVG/1.1/DTD/svg11.dtd">
<svg version="1.1" id="Layer_1" xmlns="http://www.w3.org/2000/svg" xmlns:xlink="http://www.w3.org/1999/xlink" x="0px" y="0px"
	 width="40px" height="40px" viewBox="0 0 40 40" enable-background="new 0 0 40 40" xml:space="preserve">
<g id="Layer_1_1_">
</g>
<g>
	<g id="Layer_1_2_">
	</g>
	<g id="Layer_3" display="none">
	</g>
	<g>
		<g>
			<g>
				<g>
					<path fill="#E7BB95" d="M39.226,22.668c0,2.961-2.399,5.359-5.36,5.359H6.134c-2.96,0-5.36-2.398-5.36-5.359l0,0
						c0-2.961,2.4-5.361,5.36-5.361h27.731C36.826,17.307,39.226,19.707,39.226,22.668L39.226,22.668z"/>
					<path fill="#00825F" d="M33.865,28.58H6.134c-3.259,0-5.911-2.652-5.911-5.912c0-3.261,2.652-5.913,5.911-5.913h27.731
						c3.262,0,5.913,2.652,5.913,5.913C39.778,25.928,37.127,28.58,33.865,28.58z M6.134,17.859c-2.65,0-4.808,2.157-4.808,4.809
						c0,2.652,2.157,4.809,4.808,4.809h27.731c2.652,0,4.81-2.156,4.81-4.809c0-2.652-2.157-4.809-4.81-4.809H6.134z"/>
				</g>
				<g>
					<path fill="#FFD9BD" d="M34.805,23.406c0,8.178-6.628,14.805-14.806,14.805l0,0c-8.175,0-14.804-6.627-14.804-14.805v-6.438
						c0-8.176,6.629-14.805,14.804-14.805l0,0c8.178,0,14.806,6.628,14.806,14.805V23.406z"/>
					<g>
						<path fill="#2F2F36" d="M5.195,16.968c0-8.005,6.629-14.805,14.804-14.805l0,0c8.178,0,14.806,6.628,14.806,14.805
							c-0.027-0.055-2.269-6.917-7.771-6.917c-6.616,0-10.073,8.101-13.949,8.587L5.195,16.968z"/>
						<path fill="#00825F" d="M13.085,19.191c-0.039,0-0.078-0.005-0.115-0.013l-7.89-1.671c-0.254-0.053-0.437-0.278-0.437-0.539
							c0-4.038,1.597-7.871,4.495-10.792c2.92-2.943,6.776-4.564,10.86-4.564c8.469,0,15.358,6.888,15.358,15.356
							c0,0.255-0.175,0.476-0.423,0.536c-0.249,0.059-0.505-0.058-0.621-0.285c-0.004-0.006-0.02-0.039-0.041-0.1
							c-0.39-1.087-2.566-6.516-7.238-6.516c-3.63,0-6.309,2.649-8.672,4.987c-1.828,1.808-3.407,3.37-5.209,3.597
							C13.129,19.189,13.108,19.191,13.085,19.191z M5.753,16.521l7.349,1.557c1.403-0.226,2.833-1.641,4.483-3.274
							c2.515-2.487,5.366-5.306,9.449-5.306c3.378,0,5.594,2.35,6.89,4.413C32.521,7.516,26.812,2.715,19.999,2.715
							C12.423,2.715,6,8.992,5.753,16.521z"/>
					</g>
					<path fill="#2F2F36" d="M5.674,16.53c-0.865,3.86,7.595,5.335,12.703-0.282c6.266-6.865,12.67-6.368,16.344,0.56
						c-0.118-1.998-2.081-9.091-8.41-9.634C19.979,6.63,8.735,8.519,8.735,8.519S7.763,12.105,5.674,16.53z"/>
					<path fill="#17172D" d="M10.881,20.531c-1.732,0-3.513-0.376-4.681-1.098c-1.019-0.63-1.556-1.483-1.556-2.465
						c0-0.306,0.247-0.552,0.551-0.552s0.553,0.247,0.553,0.552c0,0.588,0.347,1.103,1.032,1.526
						c1.792,1.109,5.417,1.269,7.316,0.321c0.01-0.006,0.021-0.011,0.033-0.016c2.083-0.867,3.315-2.249,4.619-3.712
						c1.423-1.595,2.894-3.244,5.484-4.042c7.768-2.444,11.054,5.637,11.087,5.718c0.112,0.283-0.027,0.604-0.313,0.716
						c-0.281,0.113-0.604-0.027-0.714-0.31l0,0c-0.118-0.295-2.948-7.204-9.733-5.069c-2.299,0.707-3.604,2.172-4.986,3.722
						c-1.327,1.487-2.697,3.025-5.001,3.989C13.589,20.296,12.25,20.531,10.881,20.531z"/>
				</g>
			</g>
			<path fill="#00825F" d="M19.999,38.764c-8.466,0-15.355-6.889-15.355-15.357v-6.438c0-8.468,6.889-15.356,15.355-15.356
				c8.469,0,15.358,6.888,15.358,15.356v6.438C35.357,31.875,28.468,38.764,19.999,38.764z M19.999,2.715
				c-7.857,0-14.251,6.393-14.251,14.252v6.438c0,7.859,6.395,14.254,14.251,14.254c7.86,0,14.254-6.395,14.254-14.254v-6.438
				C34.253,9.108,27.859,2.715,19.999,2.715z"/>
		</g>
		<g>
			<g>
				<path fill="#E05200" d="M31.924,21.015H8.786c-0.307,0-0.553-0.248-0.553-0.552c0-0.305,0.246-0.552,0.553-0.552h23.138
					c0.304,0,0.553,0.247,0.553,0.552C32.477,20.767,32.228,21.015,31.924,21.015z"/>
				<g>
					<circle fill="#E05200" cx="8.107" cy="20.496" r="1.302"/>
					<path fill="#B03200" d="M8.107,22.35c-1.022,0-1.853-0.832-1.853-1.854c0-1.022,0.831-1.854,1.853-1.854
						c1.022,0,1.854,0.832,1.854,1.854C9.961,21.518,9.129,22.35,8.107,22.35z M8.107,19.747c-0.414,0-0.749,0.335-0.749,0.749
						c0,0.415,0.335,0.75,0.749,0.75c0.413,0,0.75-0.335,0.75-0.75C8.857,20.082,8.52,19.747,8.107,19.747z"/>
				</g>
				<g>
					<circle fill="#E05200" cx="31.979" cy="20.496" r="1.302"/>
					<path fill="#B03200" d="M31.981,22.35c-1.022,0-1.854-0.832-1.854-1.854c0-1.022,0.832-1.854,1.854-1.854
						c1.021,0,1.853,0.832,1.853,1.854C33.834,21.518,33.002,22.35,31.981,22.35z M31.981,19.747c-0.415,0-0.751,0.335-0.751,0.749
						c0,0.415,0.336,0.75,0.751,0.75c0.413,0,0.749-0.335,0.749-0.75C32.73,20.082,32.395,19.747,31.981,19.747z"/>
				</g>
			</g>
			<g>
				<path fill="#E05200" d="M20.044,35.549c-0.305,0-0.553-0.248-0.553-0.553V9.502c0-0.305,0.249-0.552,0.553-0.552
					s0.552,0.248,0.552,0.552v25.494C20.596,35.301,20.349,35.549,20.044,35.549z"/>
				<g>
					<circle fill="#E05200" cx="20.044" cy="20.543" r="1.302"/>
					<path fill="#B03200" d="M20.044,22.398c-1.022,0-1.855-0.833-1.855-1.855c0-1.021,0.833-1.853,1.855-1.853
						c1.023,0,1.854,0.831,1.854,1.853C21.897,21.565,21.067,22.398,20.044,22.398z M20.044,19.794
						c-0.414,0-0.751,0.337-0.751,0.749c0,0.414,0.337,0.751,0.751,0.751s0.75-0.337,0.75-0.751
						C20.794,20.131,20.458,19.794,20.044,19.794z"/>
				</g>
				<g>
					<circle fill="#E05200" cx="20.044" cy="9.502" r="1.302"/>
					<path fill="#B03200" d="M20.044,11.356c-1.022,0-1.855-0.831-1.855-1.854c0-1.021,0.833-1.854,1.855-1.854
						c1.023,0,1.854,0.833,1.854,1.854C21.897,10.525,21.067,11.356,20.044,11.356z M20.044,8.752c-0.414,0-0.751,0.337-0.751,0.75
						s0.337,0.75,0.751,0.75s0.75-0.336,0.75-0.75S20.458,8.752,20.044,8.752z"/>
				</g>
				<g>
					<circle fill="#E05200" cx="20.044" cy="34.727" r="1.302"/>
					<path fill="#B03200" d="M20.044,36.58c-1.022,0-1.855-0.83-1.855-1.854c0-1.021,0.833-1.854,1.855-1.854
						c1.023,0,1.854,0.832,1.854,1.854C21.897,35.75,21.067,36.58,20.044,36.58z M20.044,33.977c-0.414,0-0.751,0.338-0.751,0.75
						c0,0.414,0.337,0.75,0.751,0.75s0.75-0.336,0.75-0.75C20.794,34.314,20.458,33.977,20.044,33.977z"/>
				</g>
			</g>
		</g>
	</g>
</g>
</svg>
