<?xml version="1.0" encoding="utf-8"?>
<!-- Generator: Adobe Illustrator 16.0.0, SVG Export Plug-In . SVG Version: 6.00 Build 0)  -->
<!DOCTYPE svg PUBLIC "-//W3C//DTD SVG 1.1//EN" "http://www.w3.org/Graphics/SVG/1.1/DTD/svg11.dtd">
<svg version="1.1" xmlns="http://www.w3.org/2000/svg" xmlns:xlink="http://www.w3.org/1999/xlink" x="0px" y="0px" width="117px"
	 height="116px" viewBox="0 0 117 116" enable-background="new 0 0 117 116" xml:space="preserve">
<g id="Layer_1">
</g>
<g id="Layer_2">
	<g>
		<g>
			<path fill="#E6E6E6" d="M99.2,79.9C99.2,79.2,99,63,82.5,63c-5,0-7.6,1.8-9.9,3.4c-1.7,1.2-3.4,2.3-5.6,2.3
				c-2.3,0-3.9-1.1-5.7-2.3c-2.3-1.6-4.9-3.4-9.9-3.4C35,63,34.8,79.2,34.8,79.9c0,3.9-2.6,4.5-4.1,4.5H19.2c0,7.1,0,13.1,0,13.5
				c0,1.9,1.6,3.8,3.8,3.8c0.5,0,4.3,0,10.2,0h77.9c2.4,0,4.4-1.8,4.4-4.6c0-0.6,0-6,0-12.7h-12.3C101.7,84.3,99.2,83.8,99.2,79.9z"
				/>
			<path fill="#A0A8BA" d="M111.1,102.8H23.1c-2.8,0-5-2.2-5-4.9V83.1h12.7c2,0,2.9-1,2.9-3.3c0-0.7,0.2-18.1,17.9-18.1
				c5.4,0,8.2,2,10.5,3.6c1.6,1.1,3,2.1,5,2.1c1.8,0,3.3-1,4.9-2.1c2.3-1.6,5.2-3.6,10.5-3.6c17.7,0,17.9,17.3,17.9,18.1
				c0,2.2,0.9,3.3,2.9,3.3h13.5V97C116.7,100.2,114.3,102.8,111.1,102.8z M20.4,85.5v12.3c0,1.2,1,2.6,2.7,2.6h88.1
				c1.6,0,3.3-1.2,3.3-3.4V85.5h-11.2c-3.3,0-5.3-2.1-5.3-5.6c0-0.6-0.2-15.7-15.5-15.7c-4.6,0-6.9,1.6-9.2,3.1
				c-1.8,1.2-3.6,2.5-6.2,2.5c-2.7,0-4.6-1.4-6.3-2.5c-2.2-1.5-4.6-3.1-9.2-3.1C36.2,64.2,36,79.2,36,79.9c0,3.5-2,5.6-5.3,5.6H20.4
				z"/>
		</g>
		<g>
			<path fill="#FFFFFF" d="M19.2,44.2c0,4.1,0,15.4,0,31.1c0,2.1,0,6.8,0,9h11.5c1.5,0,4.1-0.6,4.1-4.5C34.8,79.2,35,63,51.5,63
				c5,0,7.6,1.8,9.9,3.4c1.7,1.2,3.4,2.3,5.7,2.3c2.2,0,3.8-1.1,5.6-2.3c2.3-1.6,4.9-3.4,9.9-3.4C99,63,99.2,79.2,99.2,79.9
				c0,3.9,2.6,4.5,4.1,4.5h12.3c0-2.3,0-6.9,0-9c0-15.6,0-24.5,0-31.1H19.5H19.2z"/>
			<path fill="#A0A8BA" d="M116.7,85.5h-13.5c-3.3,0-5.3-2.1-5.3-5.6c0-0.6-0.2-15.7-15.5-15.7c-4.6,0-6.9,1.6-9.2,3.1
				c-1.8,1.2-3.6,2.5-6.2,2.5c-2.7,0-4.6-1.4-6.3-2.5c-2.2-1.5-4.6-3.1-9.2-3.1C36.2,64.2,36,79.2,36,79.9c0,3.5-2,5.6-5.3,5.6H18.1
				V43.1h98.7V85.5z M82.5,61.8c17.7,0,17.9,17.3,17.9,18.1c0,2.2,0.9,3.3,2.9,3.3h11.2V45.4h-94v37.7h10.3c2,0,2.9-1,2.9-3.3
				c0-0.7,0.2-18.1,17.9-18.1c5.4,0,8.2,2,10.5,3.6c1.6,1.1,3,2.1,5,2.1c1.8,0,3.3-1,4.9-2.1C74.2,63.8,77.1,61.8,82.5,61.8z"/>
		</g>
		<g>
			<path fill="#E6E6E6" d="M105,34.3H31.7c-6,0-11.1,4.3-12.2,10h96.1C115.6,37.7,111.1,34.3,105,34.3z"/>
			<path fill="#A0A8BA" d="M116.7,45.4H18.1l0.3-1.4c1.3-6.3,6.9-10.9,13.4-10.9H105c7.1,0,11.7,4.4,11.7,11.2V45.4z M21,43.1h93.3
				c-0.5-4.8-3.9-7.6-9.3-7.6H31.7C26.9,35.4,22.6,38.6,21,43.1z"/>
		</g>
		<g>
			<g>
				<path fill="#009C6C" d="M51.7,39.2c0,13.8-11.1,24.9-24.9,24.9S1.9,53,1.9,39.2c0-13.7,11.1-24.9,24.9-24.9S51.7,25.5,51.7,39.2
					z"/>
				<path fill="#FFFFFF" d="M40.9,44.8c-0.6,1.8-1.5,3.1-3.8,3.1c-0.4,0-0.7,0-1,0c-1.9,0-1.8-1.8-1.8-3.4c0-1.6,0-12.3,0-12.3h4.8
					l0,0c0,0,0,0,0,0c1.3,0,2.4-1.1,2.4-2.4s-1.1-2.4-2.4-2.4c0,0,0,0,0,0l0,0H14.8c-1.3,0-2.4,1.1-2.4,2.4s1.1,2.4,2.4,2.4H20v12.6
					c0,1.4-0.8,2.9-2.9,2.9c-1.1,0-0.8,0-2.5,0l0,0c0,0,0,0,0,0c-1.4,0-2.5,1.1-2.5,2.5c0,1.4,1.1,2.5,2.5,2.5c0,0,0,0,0,0
					c1.4,0,2.1,0,2.5,0c3.5-0.1,4.7-0.6,6.1-2.1c1.3-1.4,2-3.6,2-6.4V32.2h4.1v15c0,4.2,2.1,5.6,4.7,5.6c1.1,0,0,0,2,0
					c2.8,0,5.7-2.5,5.6-7.6c0,0,0-0.7-0.2-0.8C41,44.4,40.9,44.8,40.9,44.8z"/>
				<path fill="#00543F" d="M26.8,65.3c-14.4,0-26-11.7-26-26.1c0-14.4,11.7-26,26-26s26,11.7,26,26C52.8,53.6,41.2,65.3,26.8,65.3z
					 M26.8,15.6c-13.1,0-23.7,10.6-23.7,23.7C3.1,52.3,13.7,63,26.8,63s23.7-10.6,23.7-23.7C50.5,26.2,39.9,15.6,26.8,15.6z"/>
			</g>
		</g>
		<g>
			<path fill="#414757" d="M53.6,86.6c-4.1,0-7.3-3.3-7.3-7.3c0-4.1,3.3-7.4,7.3-7.4c4,0,7.3,3.3,7.3,7.4
				C60.9,83.3,57.6,86.6,53.6,86.6z"/>
			<path fill="#A0A8BA" d="M53.6,71.9c4,0,7.3,3.3,7.3,7.4c0,4-3.3,7.3-7.3,7.3c-4.1,0-7.3-3.3-7.3-7.3
				C46.2,75.2,49.5,71.9,53.6,71.9 M53.6,70.3c-5,0-9,4-9,9c0,4.9,4,9,9,9c4.9,0,9-4,9-9C62.5,74.3,58.5,70.3,53.6,70.3L53.6,70.3z"
				/>
		</g>
		<g>
			<path fill="#414757" d="M80.5,86.6c-4,0-7.3-3.3-7.3-7.3c0-4.1,3.3-7.4,7.3-7.4c4.1,0,7.3,3.3,7.3,7.4
				C87.8,83.3,84.5,86.6,80.5,86.6z"/>
			<path fill="#A0A8BA" d="M80.5,71.9c4.1,0,7.3,3.3,7.3,7.4c0,4-3.3,7.3-7.3,7.3c-4,0-7.3-3.3-7.3-7.3
				C73.1,75.2,76.4,71.9,80.5,71.9 M80.5,70.3c-5,0-9,4-9,9c0,4.9,4,9,9,9c5,0,9-4,9-9C89.5,74.3,85.4,70.3,80.5,70.3L80.5,70.3z"/>
		</g>
	</g>
</g>
<g id="Layer_3" display="none">
</g>
</svg>
