<?xml version="1.0" encoding="utf-8"?>
<!-- Generator: Adobe Illustrator 16.0.0, SVG Export Plug-In . SVG Version: 6.00 Build 0)  -->
<!DOCTYPE svg PUBLIC "-//W3C//DTD SVG 1.1//EN" "http://www.w3.org/Graphics/SVG/1.1/DTD/svg11.dtd">
<svg version="1.1" id="Layer_1" xmlns="http://www.w3.org/2000/svg" xmlns:xlink="http://www.w3.org/1999/xlink" x="0px" y="0px"
	 width="117px" height="116px" viewBox="0 0 117 116" enable-background="new 0 0 117 116" xml:space="preserve">
<g id="Layer_1_1_">
</g>
<g id="Layer_3" display="none">
</g>
<g>
	<g>
		<path fill="#E6E6E6" d="M98.713,79.947c0-0.699-0.198-16.951-16.748-16.951c-4.994,0-7.592,1.785-9.892,3.365
			c-1.736,1.209-3.376,2.342-5.588,2.342c-2.295,0-3.945-1.133-5.673-2.342c-2.293-1.58-4.892-3.365-9.891-3.365
			c-16.563,0-16.744,16.252-16.744,16.951c0,3.889-2.57,4.467-4.109,4.467H18.545c0,7.109,0,13.119,0,13.557
			c0,1.945,1.575,3.783,3.841,3.783c0.47,0,4.346,0,10.188,0h78.145c2.368,0,4.461-1.838,4.461-4.619c0-0.568,0-6.047,0-12.721
			h-12.376C101.27,84.414,98.713,83.836,98.713,79.947z"/>
		<path fill="#A0A8BA" d="M110.72,102.932H22.387c-2.769,0-5.021-2.225-5.021-4.961V83.232h12.703c1.999,0,2.93-1.041,2.93-3.285
			c0-0.74,0.204-18.131,17.923-18.131c5.376,0,8.251,1.98,10.558,3.574c1.646,1.146,3.058,2.133,5.006,2.133
			c1.856,0,3.271-0.986,4.91-2.129c2.327-1.598,5.206-3.578,10.569-3.578c17.721,0,17.929,17.391,17.929,18.131
			c0,2.244,0.921,3.285,2.911,3.285h13.555v13.902C116.359,100.385,113.882,102.932,110.72,102.932z M19.725,85.592v12.379
			c0,1.25,1.018,2.604,2.662,2.604h88.333c1.59,0,3.282-1.207,3.282-3.439V85.592h-11.197c-3.304,0-5.271-2.107-5.271-5.645
			c0-0.648-0.181-15.771-15.569-15.771c-4.631,0-6.967,1.605-9.225,3.156c-1.796,1.252-3.662,2.549-6.255,2.549
			c-2.692,0-4.631-1.357-6.345-2.553c-2.25-1.547-4.579-3.152-9.219-3.152c-15.389,0-15.563,15.123-15.563,15.771
			c0,3.537-1.977,5.645-5.29,5.645H19.725z"/>
	</g>
	<g>
		<path fill="#FFFFFF" d="M18.545,44.191c0,4.092,0,15.403,0,31.161c0,2.129,0,6.779,0,9.063h11.523
			c1.539,0,4.109-0.578,4.109-4.467c0-0.699,0.181-16.951,16.744-16.951c4.999,0,7.598,1.785,9.891,3.365
			c1.728,1.209,3.378,2.342,5.673,2.342c2.212,0,3.852-1.133,5.588-2.342c2.3-1.58,4.897-3.365,9.892-3.365
			c16.55,0,16.748,16.252,16.748,16.951c0,3.889,2.557,4.467,4.092,4.467h12.376c0-2.281,0-6.93,0-9.063c0-15.639,0-24.572,0-31.161
			H18.803H18.545z"/>
		<path fill="#A0A8BA" d="M116.359,85.592h-13.555c-3.304,0-5.271-2.107-5.271-5.645c0-0.648-0.181-15.771-15.569-15.771
			c-4.631,0-6.967,1.605-9.225,3.156c-1.796,1.252-3.662,2.549-6.255,2.549c-2.692,0-4.631-1.357-6.345-2.553
			c-2.25-1.547-4.579-3.152-9.219-3.152c-15.389,0-15.563,15.123-15.563,15.771c0,3.537-1.977,5.645-5.29,5.645H17.366v-42.58
			h98.994V85.592z M81.965,61.816c17.721,0,17.929,17.391,17.929,18.131c0,2.244,0.921,3.285,2.911,3.285h11.197V45.37H19.725
			v37.862h10.344c1.999,0,2.93-1.041,2.93-3.285c0-0.74,0.204-18.131,17.923-18.131c5.376,0,8.251,1.98,10.558,3.574
			c1.646,1.146,3.058,2.133,5.006,2.133c1.856,0,3.271-0.986,4.91-2.129C73.723,63.797,76.602,61.816,81.965,61.816z"/>
	</g>
	<g>
		<path fill="#E6E6E6" d="M104.621,34.181H31.073c-6.032,0-11.104,4.315-12.27,10.01h96.377
			C115.181,37.604,110.646,34.181,104.621,34.181z"/>
		<path fill="#A0A8BA" d="M116.359,45.37H17.355l0.292-1.417c1.298-6.347,6.947-10.951,13.425-10.951h73.548
			c7.129,0,11.738,4.39,11.738,11.189V45.37z M20.348,43.012h93.598c-0.469-4.815-3.885-7.651-9.324-7.651H31.073
			C26.202,35.361,21.903,38.503,20.348,43.012z"/>
	</g>
	<g>
		<g>
			<path fill="#17AFFF" d="M51.083,39.186c0,13.791-11.168,24.963-24.953,24.963c-13.787,0-24.95-11.172-24.95-24.963
				c0-13.777,11.163-24.938,24.95-24.938C39.914,14.247,51.083,25.409,51.083,39.186z"/>
			<path fill="#FFFFFF" d="M40.292,44.775c-0.571,1.839-1.503,3.117-3.764,3.117c-0.424,0-0.664,0-1.029,0
				c-1.879,0-1.768-1.771-1.768-3.412c0-1.636,0-12.318,0-12.318h4.777l0,0c0.009,0,0.015,0,0.019,0
				c1.351,0,2.447-1.092,2.447-2.449c0-1.35-1.097-2.449-2.447-2.449c-0.004,0-0.01,0.004-0.019,0.004v-0.004H14.067
				c-1.35,0-2.448,1.099-2.448,2.449c0,1.357,1.098,2.449,2.448,2.449h5.229V44.84c0,1.411-0.825,2.935-2.944,2.935
				c-1.146,0-0.807,0-2.516,0l0,0c0,0-0.006,0-0.009,0c-1.405,0-2.54,1.14-2.54,2.539c0,1.405,1.135,2.543,2.54,2.543
				c0.003,0,0.003,0,0.003,0c1.402,0,2.12,0.007,2.522,0c3.497-0.092,4.754-0.615,6.073-2.105c1.276-1.401,1.98-3.576,1.98-6.448
				V32.163h4.086v15.099c0,4.183,2.07,5.667,4.688,5.667c1.105,0,0,0,2.036,0c2.852,0,5.705-2.477,5.613-7.67
				c0,0,0.017-0.704-0.23-0.813C40.348,44.336,40.292,44.775,40.292,44.775z"/>
			<path fill="#0068FF" d="M26.13,65.328C11.722,65.328,0,53.602,0,39.186c0-14.402,11.722-26.118,26.13-26.118
				c14.406,0,26.132,11.716,26.132,26.118C52.262,53.602,40.536,65.328,26.13,65.328z M26.13,15.427
				c-13.109,0-23.77,10.656-23.77,23.758c0,13.115,10.661,23.785,23.77,23.785c13.106,0,23.774-10.67,23.774-23.785
				C49.904,26.083,39.236,15.427,26.13,15.427z"/>
		</g>
	</g>
	<g>
		<path fill="#414757" d="M52.972,86.666c-4.064,0-7.369-3.291-7.369-7.342c0-4.086,3.305-7.379,7.369-7.379
			s7.351,3.293,7.351,7.379C60.323,83.375,57.036,86.666,52.972,86.666z"/>
		<path fill="#A0A8BA" d="M52.972,71.945c4.064,0,7.351,3.293,7.351,7.379c0,4.051-3.287,7.342-7.351,7.342
			s-7.369-3.291-7.369-7.342C45.604,75.238,48.908,71.945,52.972,71.945 M52.972,70.295c-4.972,0-9.021,4.049-9.021,9.029
			c0,4.957,4.049,8.99,9.021,8.99c4.966,0,9.006-4.033,9.006-8.99C61.979,74.344,57.938,70.295,52.972,70.295L52.972,70.295z"/>
	</g>
	<g>
		<path fill="#414757" d="M79.966,86.666c-4.054,0-7.357-3.291-7.357-7.342c0-4.086,3.304-7.379,7.357-7.379
			c4.074,0,7.362,3.293,7.362,7.379C87.328,83.375,84.04,86.666,79.966,86.666z"/>
		<path fill="#A0A8BA" d="M79.966,71.945c4.074,0,7.362,3.293,7.362,7.379c0,4.051-3.288,7.342-7.362,7.342
			c-4.054,0-7.357-3.291-7.357-7.342C72.608,75.238,75.912,71.945,79.966,71.945 M79.966,70.295c-4.968,0-9.014,4.049-9.014,9.029
			c0,4.957,4.046,8.99,9.014,8.99c4.966,0,9.012-4.033,9.012-8.99C88.978,74.344,84.932,70.295,79.966,70.295L79.966,70.295z"/>
	</g>
</g>
</svg>
