<?xml version="1.0" encoding="utf-8"?>
<!-- Generator: Adobe Illustrator 16.0.0, SVG Export Plug-In . SVG Version: 6.00 Build 0)  -->
<!DOCTYPE svg PUBLIC "-//W3C//DTD SVG 1.1//EN" "http://www.w3.org/Graphics/SVG/1.1/DTD/svg11.dtd">
<svg version="1.1" id="Layer_1" xmlns="http://www.w3.org/2000/svg" xmlns:xlink="http://www.w3.org/1999/xlink" x="0px" y="0px"
	 width="40px" height="40px" viewBox="0 0 40 40" enable-background="new 0 0 40 40" xml:space="preserve">
<g>
	<g id="Layer_1_1_">
	</g>
	<g id="Layer_1_2_">
	</g>
	<g id="Layer_3" display="none">
	</g>
	<g id="Layer_1_3_">
	</g>
	<g id="Layer_3_1_" display="none">
	</g>
	<g>
		<g>
			<g>
				<path fill="#1A73E8" d="M35.543,34.281c0,2.961-2.424,5.385-5.385,5.385H5.477c-2.961,0-5.385-2.424-5.385-5.385V9.601
					c0-2.962,2.424-5.385,5.385-5.385h24.682c2.961,0,5.385,2.423,5.385,5.385V34.281z"/>
				<path fill="#005BE5" d="M30.158,5.655c2.176,0,3.943,1.77,3.943,3.945v24.681c0,2.175-1.768,3.944-3.943,3.944H5.477
					c-2.174,0-3.944-1.77-3.944-3.944V9.601c0-2.176,1.771-3.945,3.944-3.945H30.158 M30.158,4.216H5.477
					c-2.961,0-5.385,2.423-5.385,5.385v24.681c0,2.961,2.424,5.385,5.385,5.385h24.682c2.961,0,5.385-2.424,5.385-5.385V9.601
					C35.543,6.639,33.119,4.216,30.158,4.216L30.158,4.216z"/>
			</g>
			<g>
				<g>
					<circle fill="#FFFFFF" cx="8.942" cy="18.189" r="3.745"/>
					<path fill="#004ADB" d="M8.943,22.475c-2.363,0-4.287-1.922-4.287-4.285s1.924-4.286,4.287-4.286s4.285,1.923,4.285,4.286
						S11.307,22.475,8.943,22.475z M8.943,14.983c-1.768,0-3.207,1.438-3.207,3.206c0,1.768,1.439,3.206,3.207,3.206
						s3.205-1.438,3.205-3.206C12.148,16.421,10.711,14.983,8.943,14.983z"/>
				</g>
				<g>
					<polygon fill="#FFFFFF" points="12.551,23.161 5.094,31.305 32.133,31.305 23.633,18.189 16.529,27.207 					"/>
					<path fill="#004ADB" d="M32.141,31.845c-0.002,0-0.006,0-0.008,0H5.094c-0.215,0-0.408-0.127-0.494-0.322
						c-0.086-0.196-0.049-0.425,0.096-0.583l7.457-8.143c0.1-0.109,0.24-0.173,0.389-0.176c0.146-0.001,0.291,0.056,0.395,0.161
						l3.549,3.608l6.725-8.535c0.107-0.137,0.27-0.214,0.449-0.206c0.174,0.008,0.334,0.1,0.428,0.246l8.459,13.051
						c0.084,0.096,0.135,0.221,0.135,0.358C32.68,31.603,32.438,31.845,32.141,31.845z M6.32,30.765h24.818L23.59,19.116
						l-6.637,8.425c-0.096,0.121-0.24,0.196-0.395,0.205c-0.154,0.005-0.307-0.051-0.414-0.161l-3.58-3.64L6.32,30.765z"/>
				</g>
			</g>
		</g>
		<g>
			<g>
				<g>
					<path fill="#B1FFFF" d="M23.951,12.691V4.474c0-1.98,1.619-3.6,3.6-3.6h8.217c1.98,0,3.6,1.62,3.6,3.6v8.217
						c0,1.98-1.619,3.6-3.6,3.6H23.951V12.691z"/>
					<path fill="#6DA2FF" d="M35.768,16.831H23.41V4.474c0-2.283,1.857-4.14,4.141-4.14h8.217c2.283,0,4.141,1.857,4.141,4.14v8.217
						C39.908,14.974,38.051,16.831,35.768,16.831z M24.49,15.751h11.277c1.688,0,3.061-1.373,3.061-3.06V4.474
						c0-1.687-1.373-3.06-3.061-3.06h-8.217c-1.688,0-3.061,1.373-3.061,3.06V15.751z"/>
				</g>
			</g>
			<g>
				<g>
					<g>
						<g>
							<path fill-rule="evenodd" clip-rule="evenodd" fill="#1950A7" d="M31.156,4.445h-5.225c-0.066,0-0.121,0.055-0.121,0.121
								v0.998c0,0.067,0.055,0.122,0.121,0.122h1.902v5.034c0,0.066,0.053,0.121,0.121,0.121h1.156c0.066,0,0.121-0.055,0.121-0.121
								V5.686h1.924c0.068,0,0.121-0.055,0.121-0.122V4.566C31.277,4.5,31.225,4.445,31.156,4.445z"/>
							<path fill="#001E6B" d="M29.111,10.947h-1.156c-0.127,0-0.229-0.102-0.229-0.227V5.792h-1.795
								c-0.125,0-0.227-0.102-0.227-0.228V4.566c0-0.125,0.102-0.228,0.227-0.228h5.225c0.125,0,0.229,0.102,0.229,0.228v0.998
								c0,0.126-0.104,0.228-0.229,0.228h-1.818v4.928C29.338,10.846,29.236,10.947,29.111,10.947z M25.932,4.552l-0.014,1.013
								l1.916,0.015c0.059,0,0.105,0.047,0.105,0.106v5.034l1.172,0.015c0.008,0,0.014-0.007,0.014-0.015V5.686
								c0-0.059,0.049-0.106,0.107-0.106h1.924l0.016-1.013L25.932,4.552z"/>
						</g>
						<g>
							<path fill-rule="evenodd" clip-rule="evenodd" fill="#1950A7" d="M36.934,6.651h-0.973h-0.154c-0.193,0-0.508,0-0.592,0
								c-0.121,0-0.207,0.037-0.252,0.151c-0.016,0.039-0.063,0.154-0.119,0.289c-0.004,0.007-0.01,0.014-0.012,0.021l-1.258,2.739
								l-1.27-2.739c-0.004-0.008-0.008-0.015-0.014-0.022c-0.055-0.135-0.102-0.25-0.117-0.288
								c-0.047-0.114-0.131-0.151-0.254-0.151c-0.082,0-0.389,0-0.584,0h-0.16h-0.967c-0.066,0-0.119,0.055-0.119,0.121v6.153
								c0,0.066,0.053,0.121,0.119,0.121h1.127c0.068,0,0.121-0.055,0.121-0.121V8.428l1.502,3.239
								c0.025,0.056,0.086,0.067,0.146,0.067s0.986,0,0.986,0v-0.002c0.045-0.002,0.086-0.027,0.104-0.069l1.49-3.244v4.505
								c0,0.066,0.055,0.121,0.121,0.121h1.127c0.066,0,0.121-0.055,0.121-0.121V6.771C37.055,6.706,37,6.651,36.934,6.651z"/>
							<path fill="#001E6B" d="M36.934,13.152h-1.127c-0.127,0-0.229-0.102-0.229-0.227V8.906l-1.285,2.801
								c-0.031,0.07-0.096,0.118-0.172,0.129c-0.01,0.002-0.02,0.004-0.029,0.004h-0.986c-0.121,0-0.203-0.043-0.242-0.128
								L31.564,8.91v4.015c0,0.125-0.104,0.227-0.229,0.227h-1.127c-0.125,0-0.227-0.102-0.227-0.227V6.771
								c0-0.125,0.102-0.227,0.227-0.227h1.711c0.178,0,0.293,0.071,0.352,0.217l0.117,0.288c0,0,0.016,0.024,0.016,0.025
								l1.17,2.523l1.16-2.529c0.004-0.005,0.018-0.032,0.021-0.036c0.045-0.116,0.092-0.23,0.107-0.269
								c0.061-0.148,0.174-0.219,0.352-0.219h1.719c0.125,0,0.227,0.102,0.227,0.227v6.153C37.16,13.05,37.059,13.152,36.934,13.152
								z M35.686,8.313c0.006,0,0.014,0.001,0.021,0.002c0.049,0.011,0.084,0.054,0.084,0.104v4.505l1.143,0.015
								c0.008,0,0.014-0.007,0.014-0.015V6.771l-1.732-0.015c-0.102,0-0.131,0.029-0.154,0.085c-0.014,0.038-0.063,0.153-0.119,0.29
								c0,0.003-0.01,0.021-0.014,0.023L33.67,9.896c-0.016,0.038-0.055,0.062-0.096,0.062l0,0c-0.041,0-0.08-0.024-0.096-0.062
								l-1.271-2.739c-0.004-0.007-0.012-0.019-0.014-0.027l-0.119-0.289c-0.021-0.056-0.053-0.084-0.154-0.084h-1.711l-0.014,6.168
								l1.141,0.015l0.016-4.512c0-0.05,0.035-0.094,0.084-0.104s0.098,0.015,0.119,0.06l1.502,3.239l0,0
								c0,0,0.012,0.006,0.049,0.006h0.971c0.004-0.001,0.008-0.001,0.012-0.001l1.5-3.251C35.605,8.337,35.645,8.313,35.686,8.313z
								"/>
						</g>
					</g>
				</g>
			</g>
		</g>
	</g>
</g>
</svg>
