<?xml version="1.0" encoding="utf-8"?>
<!-- Generator: Adobe Illustrator 16.0.0, SVG Export Plug-In . SVG Version: 6.00 Build 0)  -->
<!DOCTYPE svg PUBLIC "-//W3C//DTD SVG 1.1//EN" "http://www.w3.org/Graphics/SVG/1.1/DTD/svg11.dtd">
<svg version="1.1" id="Layer_1" xmlns="http://www.w3.org/2000/svg" xmlns:xlink="http://www.w3.org/1999/xlink" x="0px" y="0px"
	 width="40px" height="40px" viewBox="-0.5 0 40 40" enable-background="new -0.5 0 40 40" xml:space="preserve">
<g id="Layer_1_1_">
</g>
<g id="Layer_1_2_">
</g>
<g id="Layer_3" display="none">
</g>
<g>
	<g>
		<path fill="#E6E6E6" d="M32.891,27.426c0-0.237-0.067-5.735-5.666-5.735c-1.689,0-2.567,0.604-3.345,1.139
			c-0.588,0.409-1.143,0.792-1.892,0.792c-0.775,0-1.334-0.383-1.917-0.792c-0.776-0.534-1.656-1.139-3.346-1.139
			c-5.603,0-5.665,5.498-5.665,5.735c0,1.313-0.87,1.509-1.39,1.509H5.773c0,2.406,0,4.439,0,4.587c0,0.656,0.532,1.278,1.299,1.278
			c0.159,0,1.47,0,3.446,0h26.433c0.802,0,1.509-0.622,1.509-1.561c0-0.193,0-2.046,0-4.305h-4.186
			C33.756,28.935,32.891,28.738,32.891,27.426z"/>
		<path fill="#A0A8BA" d="M36.951,35.198H7.073c-0.937,0-1.698-0.753-1.698-1.677v-4.987h4.296c0.676,0,0.991-0.35,0.991-1.108
			c0-0.253,0.069-6.134,6.063-6.134c1.817,0,2.791,0.67,3.571,1.207c0.557,0.39,1.035,0.722,1.692,0.722
			c0.629,0,1.106-0.332,1.661-0.72c0.787-0.539,1.761-1.209,3.575-1.209c5.995,0,6.064,5.881,6.064,6.134
			c0,0.759,0.313,1.108,0.985,1.108h4.585v4.705C38.859,34.337,38.021,35.198,36.951,35.198z M6.172,29.334v4.188
			c0,0.422,0.344,0.879,0.901,0.879h29.878c0.538,0,1.11-0.407,1.11-1.161v-3.905h-3.787c-1.117,0-1.783-0.713-1.783-1.908
			c0-0.222-0.061-5.338-5.267-5.338c-1.565,0-2.355,0.544-3.119,1.07c-0.608,0.424-1.239,0.86-2.117,0.86
			c-0.909,0-1.565-0.459-2.146-0.863c-0.761-0.523-1.549-1.067-3.118-1.067c-5.206,0-5.265,5.116-5.265,5.338
			c0,1.195-0.668,1.908-1.789,1.908H6.172z"/>
	</g>
	<g>
		<path fill="#FFFFFF" d="M5.773,15.33c0,1.384,0,5.21,0,10.539c0,0.722,0,2.293,0,3.065h3.897c0.52,0,1.39-0.196,1.39-1.509
			c0-0.237,0.062-5.735,5.665-5.735c1.69,0,2.57,0.604,3.346,1.139c0.583,0.409,1.142,0.792,1.917,0.792
			c0.749,0,1.304-0.383,1.892-0.792c0.777-0.534,1.655-1.139,3.345-1.139c5.599,0,5.666,5.498,5.666,5.735
			c0,1.313,0.865,1.509,1.384,1.509h4.186c0-0.772,0-2.344,0-3.065c0-5.29,0-8.311,0-10.539H5.86H5.773z"/>
		<path fill="#A0A8BA" d="M38.859,29.334h-4.585c-1.117,0-1.783-0.713-1.783-1.908c0-0.222-0.061-5.338-5.267-5.338
			c-1.565,0-2.355,0.544-3.119,1.07c-0.608,0.424-1.239,0.86-2.117,0.86c-0.909,0-1.565-0.459-2.146-0.863
			c-0.761-0.523-1.549-1.067-3.118-1.067c-5.206,0-5.265,5.116-5.265,5.338c0,1.195-0.668,1.908-1.789,1.908H5.375V14.931h33.485
			V29.334z M27.225,21.292c5.995,0,6.064,5.881,6.064,6.134c0,0.759,0.313,1.108,0.985,1.108h3.787V15.729H6.172v12.806h3.499
			c0.676,0,0.991-0.35,0.991-1.108c0-0.253,0.069-6.134,6.063-6.134c1.817,0,2.791,0.67,3.571,1.207
			c0.557,0.39,1.035,0.722,1.692,0.722c0.629,0,1.106-0.332,1.661-0.72C24.437,21.962,25.41,21.292,27.225,21.292z"/>
	</g>
	<g>
		<path fill="#E6E6E6" d="M34.889,11.943H10.011c-2.041,0-3.756,1.46-4.15,3.387h32.6C38.46,13.102,36.927,11.943,34.889,11.943z"/>
		<path fill="#A0A8BA" d="M38.859,15.729H5.371l0.099-0.479c0.439-2.147,2.35-3.704,4.542-3.704h24.878
			c2.411,0,3.971,1.484,3.971,3.785V15.729z M6.383,14.931h31.66c-0.158-1.629-1.314-2.588-3.154-2.588H10.011
			C8.363,12.343,6.909,13.406,6.383,14.931z"/>
	</g>
	<g>
		<g>
			<path fill="#17AFFF" d="M16.779,13.637c0,4.665-3.777,8.442-8.44,8.442c-4.664,0-8.44-3.777-8.44-8.442
				c0-4.66,3.776-8.436,8.44-8.436C13.001,5.201,16.779,8.977,16.779,13.637z"/>
			<path fill="#FFFFFF" d="M13.129,15.527c-0.193,0.622-0.508,1.055-1.273,1.055c-0.144,0-0.225,0-0.348,0
				c-0.636,0-0.598-0.6-0.598-1.154c0-0.554,0-4.167,0-4.167h1.616l0,0c0.003,0,0.005,0,0.006,0c0.458,0,0.828-0.369,0.828-0.828
				c0-0.456-0.371-0.828-0.828-0.828c-0.001,0-0.003,0.001-0.006,0.001V9.604H4.258c-0.457,0-0.828,0.372-0.828,0.828
				c0,0.459,0.371,0.828,0.828,0.828h1.769v4.289c0,0.477-0.28,0.992-0.996,0.992c-0.388,0-0.273,0-0.851,0l0,0c0,0-0.002,0-0.003,0
				c-0.475,0-0.859,0.386-0.859,0.858c0,0.476,0.384,0.86,0.859,0.86c0.001,0,0.001,0,0.001,0c0.474,0,0.717,0.003,0.853,0
				c1.182-0.03,1.608-0.208,2.054-0.712c0.432-0.474,0.669-1.209,0.669-2.181v-4.107h1.383v5.107c0,1.415,0.7,1.917,1.585,1.917
				c0.374,0,0,0,0.688,0c0.965,0,1.93-0.838,1.899-2.595c0,0,0.006-0.237-0.078-0.274S13.129,15.527,13.129,15.527z"/>
			<path fill="#0068FF" d="M8.339,22.479c-4.874,0-8.839-3.967-8.839-8.843c0-4.871,3.965-8.835,8.839-8.835
				c4.873,0,8.838,3.964,8.838,8.835C17.177,18.513,13.212,22.479,8.339,22.479z M8.339,5.601c-4.435,0-8.041,3.604-8.041,8.036
				c0,4.436,3.606,8.045,8.041,8.045c4.433,0,8.042-3.609,8.042-8.045C16.38,9.204,12.772,5.601,8.339,5.601z"/>
		</g>
	</g>
	<g>
		<path fill="#414757" d="M17.418,29.697c-1.375,0-2.492-1.113-2.492-2.484c0-1.381,1.118-2.496,2.492-2.496
			c1.374,0,2.486,1.115,2.486,2.496C19.905,28.584,18.792,29.697,17.418,29.697z"/>
		<path fill="#A0A8BA" d="M17.418,24.717c1.374,0,2.486,1.115,2.486,2.496c0,1.371-1.112,2.484-2.486,2.484
			c-1.375,0-2.492-1.113-2.492-2.484C14.926,25.832,16.044,24.717,17.418,24.717 M17.418,24.16c-1.682,0-3.052,1.369-3.052,3.053
			c0,1.678,1.37,3.041,3.052,3.041c1.679,0,3.046-1.363,3.046-3.041C20.464,25.529,19.097,24.16,17.418,24.16L17.418,24.16z"/>
	</g>
	<g>
		<path fill="#414757" d="M26.549,29.697c-1.372,0-2.488-1.113-2.488-2.484c0-1.381,1.116-2.496,2.488-2.496
			c1.378,0,2.49,1.115,2.49,2.496C29.039,28.584,27.927,29.697,26.549,29.697z"/>
		<path fill="#A0A8BA" d="M26.549,24.717c1.378,0,2.49,1.115,2.49,2.496c0,1.371-1.112,2.484-2.49,2.484
			c-1.372,0-2.488-1.113-2.488-2.484C24.061,25.832,25.177,24.717,26.549,24.717 M26.549,24.16c-1.68,0-3.048,1.369-3.048,3.053
			c0,1.678,1.368,3.041,3.048,3.041c1.681,0,3.049-1.363,3.049-3.041C29.598,25.529,28.229,24.16,26.549,24.16L26.549,24.16z"/>
	</g>
</g>
</svg>
