<?xml version="1.0" encoding="utf-8"?>
<!-- Generator: Adobe Illustrator 16.0.0, SVG Export Plug-In . SVG Version: 6.00 Build 0)  -->
<!DOCTYPE svg PUBLIC "-//W3C//DTD SVG 1.1//EN" "http://www.w3.org/Graphics/SVG/1.1/DTD/svg11.dtd">
<svg version="1.1" id="Layer_1" xmlns="http://www.w3.org/2000/svg" xmlns:xlink="http://www.w3.org/1999/xlink" x="0px" y="0px"
	 width="40px" height="40px" viewBox="0 0 40 40" enable-background="new 0 0 40 40" xml:space="preserve">
<g id="Layer_1_1_">
</g>
<g id="Layer_1_2_">
</g>
<g id="Layer_3" display="none">
</g>
<g>
	<g>
		<g>
			<path fill="#DEFF3E" d="M35.747,15.063l-6.89-0.928l-5.445-4.863c-0.268-0.24-1.304-1.277-3.819-1.277
				c-2.517,0-3.458,0.872-3.783,1.164l-4.669,4.18L6.852,9.305c-0.789-0.741-2.029-0.702-2.77,0.086
				c-0.742,0.788-0.703,2.028,0.085,2.77l0.779,0.732l0.081,0.076l4.738,4.456c0.377,0.354,0.859,0.532,1.343,0.532
				c0.467,0,0.935-0.167,1.308-0.5l1.617-1.448v6.853l-8.075,8.066c-0.966-0.89-2.468-0.868-3.404,0.068l3.145,3.145l1.478,1.479
				l11.125-11.115h2.668v14.749h1.629h2.551h2.371c0-1.329-1.054-2.409-2.371-2.457V24.506h0.004v-8.424l1.543,1.378
				c0.291,0.26,0.655,0.428,1.044,0.479l7.486,1.008c0.088,0.012,0.176,0.018,0.263,0.018c0.966,0,1.808-0.715,1.939-1.698
				C37.572,16.194,36.82,15.207,35.747,15.063z"/>
			<path fill="#929D00" d="M27.525,39.768c-0.001,0.001-0.004,0-0.006,0h-6.551c-0.284,0-0.514-0.229-0.514-0.513V25.02h-1.941
				L7.539,35.984c-0.201,0.199-0.526,0.199-0.727-0.001L2.19,31.359c-0.2-0.2-0.2-0.525,0-0.726c0.562-0.562,1.307-0.87,2.1-0.87
				c0.582,0,1.145,0.17,1.624,0.482l7.605-7.598v-5.49l-0.762,0.682c-0.454,0.406-1.039,0.63-1.649,0.63
				c-0.632,0-1.233-0.238-1.694-0.671l-5.6-5.265c-0.48-0.452-0.757-1.065-0.777-1.726s0.218-1.289,0.67-1.771
				C4.173,8.543,4.83,8.26,5.51,8.26c0.632,0,1.233,0.238,1.693,0.671l3.946,3.71l4.317-3.865c0.367-0.329,1.445-1.294,4.126-1.294
				c1.732,0,3.122,0.462,4.128,1.377l5.36,4.789l6.735,0.905c0.654,0.089,1.235,0.426,1.636,0.951s0.573,1.175,0.485,1.83
				c-0.165,1.222-1.218,2.143-2.449,2.143c-0.109,0-0.222-0.008-0.331-0.021l-7.487-1.008c-0.491-0.065-0.947-0.275-1.317-0.605
				l-0.687-0.614v7.278c0,0.02-0.002,0.039-0.004,0.058v11.78c1.336,0.271,2.331,1.426,2.37,2.826
				c0.005,0.027,0.007,0.056,0.007,0.085C28.039,39.539,27.809,39.768,27.525,39.768z M21.482,38.741h5.456
				c-0.217-0.804-0.935-1.397-1.809-1.43c-0.276-0.011-0.495-0.237-0.495-0.514V24.506c0-0.019,0.002-0.038,0.004-0.057v-8.368
				c0-0.203,0.118-0.387,0.303-0.47c0.186-0.082,0.402-0.049,0.553,0.086l1.542,1.379c0.217,0.192,0.483,0.315,0.771,0.354
				l7.485,1.008c0.788,0.104,1.521-0.462,1.625-1.24c0.053-0.383-0.048-0.764-0.282-1.07s-0.574-0.505-0.957-0.557l-6.891-0.927
				c-0.102-0.014-0.197-0.058-0.273-0.126l-5.483-4.899c-0.303-0.274-1.223-1.11-3.438-1.11c-2.288,0-3.116,0.742-3.429,1.021
				l-4.681,4.191c-0.198,0.178-0.5,0.173-0.694-0.009L6.5,9.679C6.23,9.426,5.879,9.287,5.51,9.287
				c-0.403,0-0.777,0.161-1.054,0.456c-0.265,0.281-0.404,0.648-0.393,1.035c0.012,0.386,0.174,0.744,0.455,1.009l5.599,5.265
				c0.27,0.253,0.621,0.393,0.991,0.393c0.356,0,0.699-0.132,0.965-0.369l1.617-1.448c0.151-0.135,0.368-0.169,0.552-0.086
				c0.185,0.082,0.304,0.266,0.304,0.469v6.853c0,0.136-0.054,0.267-0.15,0.363l-8.074,8.066c-0.195,0.194-0.509,0.2-0.711,0.015
				c-0.36-0.333-0.83-0.516-1.32-0.516c-0.343,0-0.672,0.088-0.962,0.254l3.848,3.85l10.762-10.752
				c0.098-0.096,0.228-0.149,0.363-0.149h2.668c0.283,0,0.514,0.229,0.514,0.513V38.741z"/>
		</g>
		<g>
			<circle fill="#DEFF3E" cx="19.593" cy="4.202" r="3.456"/>
			<path fill="#929D00" d="M19.593,8.171c-2.189,0-3.97-1.78-3.97-3.97s1.78-3.97,3.97-3.97c2.188,0,3.97,1.78,3.97,3.97
				S21.781,8.171,19.593,8.171z M19.593,1.258c-1.623,0-2.943,1.32-2.943,2.943c0,1.622,1.32,2.943,2.943,2.943
				c1.622,0,2.942-1.321,2.942-2.943C22.535,2.579,21.215,1.258,19.593,1.258z"/>
		</g>
	</g>
	<g>
		<circle fill="#B03200" cx="19.592" cy="4.253" r="1.403"/>
		<circle fill="#B03200" cx="15.204" cy="12.522" r="0.786"/>
		<circle fill="#B03200" cx="23.321" cy="12.522" r="0.786"/>
		<circle fill="#B03200" cx="35.207" cy="16.959" r="0.786"/>
		<circle fill="#B03200" cx="11.237" cy="15.909" r="0.786"/>
		<circle fill="#B03200" cx="27.986" cy="15.951" r="0.786"/>
		<circle fill="#B03200" cx="16.775" cy="18.19" r="0.786"/>
		<circle fill="#B03200" cx="23.321" cy="18.19" r="0.786"/>
		<circle fill="#B03200" cx="23.321" cy="22.735" r="0.786"/>
		<circle fill="#B03200" cx="23.321" cy="37.58" r="0.786"/>
		<circle fill="#B03200" cx="16.606" cy="22.735" r="0.786"/>
		<path fill="#B03200" d="M23.321,18.546h-6.687c-0.135,0-0.253-0.093-0.284-0.225l-1.433-5.931c-0.021-0.088,0-0.18,0.055-0.25
			c0.056-0.071,0.141-0.112,0.23-0.112h8.118c0.162,0,0.293,0.132,0.293,0.293v5.931C23.614,18.415,23.483,18.546,23.321,18.546z
			 M16.866,17.959h6.161v-5.344h-7.451L16.866,17.959z"/>
		<path fill="#B03200" d="M11.313,16.292c-0.069,0-0.139-0.025-0.194-0.075l-5.673-5.049c-0.121-0.108-0.132-0.293-0.024-0.415
			c0.108-0.121,0.294-0.131,0.415-0.023l5.471,4.87l3.695-3.49c0.118-0.111,0.304-0.105,0.414,0.012
			c0.111,0.118,0.106,0.304-0.012,0.415l-3.891,3.675C11.458,16.264,11.385,16.292,11.313,16.292z"/>
		<path fill="#B03200" d="M35.415,17.253c-0.012,0-0.024-0.001-0.036-0.002l-7.465-0.931c-0.05-0.007-0.099-0.026-0.14-0.058
			l-4.63-3.508c-0.13-0.097-0.155-0.281-0.057-0.411c0.097-0.129,0.281-0.154,0.41-0.056l4.568,3.46l7.385,0.92
			c0.16,0.021,0.275,0.168,0.254,0.328C35.688,17.145,35.562,17.253,35.415,17.253z"/>
		<path fill="#B03200" d="M23.321,23.029h-6.716c-0.078,0-0.152-0.031-0.207-0.087c-0.056-0.056-0.086-0.13-0.086-0.208l0.029-4.484
			c0.001-0.161,0.132-0.291,0.293-0.291h6.687c0.162,0,0.293,0.131,0.293,0.293v4.483C23.614,22.898,23.483,23.029,23.321,23.029z
			 M16.901,22.442h6.126v-3.896h-6.101L16.901,22.442z"/>
		<path fill="#B03200" d="M7.101,32.67c-0.074,0-0.148-0.028-0.206-0.085c-0.115-0.113-0.117-0.299-0.003-0.415l9.505-9.641
			c0.114-0.115,0.3-0.116,0.415-0.002c0.116,0.113,0.117,0.299,0.004,0.414L7.31,32.583C7.252,32.641,7.177,32.67,7.101,32.67z"/>
		<path fill="#B03200" d="M23.321,37.976c-0.162,0-0.294-0.132-0.294-0.294V22.735c0-0.162,0.132-0.293,0.294-0.293
			s0.293,0.131,0.293,0.293v14.946C23.614,37.844,23.483,37.976,23.321,37.976z"/>
	</g>
	<g>
		<circle fill="#B03200" cx="5.64" cy="10.948" r="0.786"/>
		<circle fill="#B03200" cx="6.44" cy="32.79" r="0.786"/>
	</g>
	<g>
		<path fill="#00825F" d="M27.525,39.768c-0.001,0.001-0.004,0-0.006,0h-6.551c-0.284,0-0.514-0.229-0.514-0.513V25.02h-1.941
			L7.539,35.984c-0.201,0.199-0.526,0.199-0.727-0.001L2.19,31.359c-0.2-0.2-0.2-0.525,0-0.726c0.562-0.562,1.307-0.87,2.1-0.87
			c0.582,0,1.145,0.17,1.624,0.482l7.605-7.598v-5.49l-0.762,0.682c-0.454,0.406-1.039,0.63-1.649,0.63
			c-0.632,0-1.233-0.238-1.694-0.671l-5.6-5.265c-0.48-0.452-0.757-1.065-0.777-1.726s0.218-1.289,0.67-1.771
			C4.173,8.543,4.83,8.26,5.51,8.26c0.632,0,1.233,0.238,1.693,0.671l3.946,3.71l4.317-3.865c0.367-0.329,1.445-1.294,4.126-1.294
			c1.732,0,3.122,0.462,4.128,1.377l5.36,4.789l6.735,0.905c0.654,0.089,1.235,0.426,1.636,0.951s0.573,1.175,0.485,1.83
			c-0.165,1.222-1.218,2.143-2.449,2.143c-0.109,0-0.222-0.008-0.331-0.021l-7.487-1.008c-0.491-0.065-0.947-0.275-1.317-0.605
			l-0.687-0.614v7.278c0,0.02-0.002,0.039-0.004,0.058v11.78c1.336,0.271,2.331,1.426,2.37,2.826
			c0.005,0.027,0.007,0.056,0.007,0.085C28.039,39.539,27.809,39.768,27.525,39.768z M21.482,38.741h5.456
			c-0.217-0.804-0.935-1.397-1.809-1.43c-0.276-0.011-0.495-0.237-0.495-0.514V24.506c0-0.019,0.002-0.038,0.004-0.057v-8.368
			c0-0.203,0.118-0.387,0.303-0.47c0.186-0.082,0.402-0.049,0.553,0.086l1.542,1.379c0.217,0.192,0.483,0.315,0.771,0.354
			l7.485,1.008c0.788,0.104,1.521-0.462,1.625-1.24c0.053-0.383-0.048-0.764-0.282-1.07s-0.574-0.505-0.957-0.557l-6.891-0.927
			c-0.102-0.014-0.197-0.058-0.273-0.126l-5.483-4.899c-0.303-0.274-1.223-1.11-3.438-1.11c-2.288,0-3.116,0.742-3.429,1.021
			l-4.681,4.191c-0.198,0.178-0.5,0.173-0.694-0.009L6.5,9.679C6.23,9.426,5.879,9.287,5.51,9.287c-0.403,0-0.777,0.161-1.054,0.456
			c-0.265,0.281-0.404,0.648-0.393,1.035c0.012,0.386,0.174,0.744,0.455,1.009l5.599,5.265c0.27,0.253,0.621,0.393,0.991,0.393
			c0.356,0,0.699-0.132,0.965-0.369l1.617-1.448c0.151-0.135,0.368-0.169,0.552-0.086c0.185,0.082,0.304,0.266,0.304,0.469v6.853
			c0,0.136-0.054,0.267-0.15,0.363l-8.074,8.066c-0.195,0.194-0.509,0.2-0.711,0.015c-0.36-0.333-0.83-0.516-1.32-0.516
			c-0.343,0-0.672,0.088-0.962,0.254l3.848,3.85l10.762-10.752c0.098-0.096,0.228-0.149,0.363-0.149h2.668
			c0.283,0,0.514,0.229,0.514,0.513V38.741z"/>
		<path fill="#00825F" d="M19.593,8.171c-2.189,0-3.97-1.78-3.97-3.97s1.78-3.97,3.97-3.97c2.188,0,3.97,1.78,3.97,3.97
			S21.781,8.171,19.593,8.171z M19.593,1.258c-1.623,0-2.943,1.32-2.943,2.943c0,1.622,1.32,2.943,2.943,2.943
			c1.622,0,2.942-1.321,2.942-2.943C22.535,2.579,21.215,1.258,19.593,1.258z"/>
	</g>
</g>
</svg>
