<?xml version="1.0" encoding="utf-8"?>
<!-- Generator: Adobe Illustrator 16.0.0, SVG Export Plug-In . SVG Version: 6.00 Build 0)  -->
<!DOCTYPE svg PUBLIC "-//W3C//DTD SVG 1.1//EN" "http://www.w3.org/Graphics/SVG/1.1/DTD/svg11.dtd">
<svg version="1.1" id="Layer_1" xmlns="http://www.w3.org/2000/svg" xmlns:xlink="http://www.w3.org/1999/xlink" x="0px" y="0px"
	 width="40px" height="40px" viewBox="0 0 40 40" enable-background="new 0 0 40 40" xml:space="preserve">
<g>
	<g>
		<path fill="#9F3E16" d="M32.6,5.737H19.288c-1.207,0-2.028,0.987-1.823,2.194l0.495,2.925H2.453c-1.207,0-2.027,0.988-1.823,2.195
			l3.219,19.018c0.204,1.207,1.359,2.194,2.565,2.194h31.014c1.207,0,2.026-0.987,1.823-2.194l-1.708-10.095l-1.511-8.923
			l-0.866-5.12C34.962,6.725,33.807,5.737,32.6,5.737z"/>
		<path fill="#C75B2A" d="M37.428,34.772H6.414c-1.447,0-2.822-1.175-3.067-2.618L0.128,13.136c-0.125-0.739,0.054-1.44,0.504-1.974
			c0.444-0.525,1.09-0.813,1.82-0.813h14.905l-0.395-2.332c-0.125-0.74,0.054-1.441,0.504-1.975c0.444-0.524,1.09-0.813,1.821-0.813
			H32.6c1.447,0,2.823,1.174,3.067,2.618l4.085,24.138c0.125,0.74-0.054,1.441-0.505,1.975
			C38.804,34.483,38.157,34.772,37.428,34.772z M2.453,11.365c-0.425,0-0.795,0.161-1.043,0.454
			c-0.254,0.301-0.353,0.708-0.278,1.147L4.35,31.984c0.162,0.96,1.107,1.771,2.063,1.771h31.014c0.426,0,0.796-0.161,1.043-0.454
			c0.254-0.301,0.353-0.709,0.278-1.147L34.664,8.017c-0.162-0.961-1.107-1.771-2.064-1.771H19.288c-0.426,0-0.796,0.16-1.043,0.452
			c-0.254,0.301-0.354,0.709-0.279,1.148l0.496,2.925c0.025,0.148-0.017,0.299-0.113,0.414c-0.097,0.114-0.238,0.18-0.389,0.18
			H2.453z"/>
	</g>
	<g>
		<path fill="#FFFFFF" d="M37.208,5.736H23.896c-1.206,0-2.194,0.988-2.194,2.194v2.926H6.194C4.988,10.856,4,11.845,4,13.052
			v19.018c0,1.207,0.988,2.194,2.194,2.194h31.014c1.207,0,2.194-0.987,2.194-2.194V21.975v-8.923V7.931
			C39.402,6.725,38.415,5.736,37.208,5.736z"/>
		<path fill="#C75B2A" d="M37.208,34.772H6.194c-1.49,0-2.703-1.213-2.703-2.703V13.052c0-1.491,1.213-2.703,2.703-2.703h14.998
			V7.931c0-1.49,1.213-2.703,2.703-2.703h13.313c1.49,0,2.703,1.213,2.703,2.703v24.139C39.911,33.56,38.698,34.772,37.208,34.772z
			 M6.194,11.365c-0.929,0-1.686,0.757-1.686,1.687v19.018c0,0.93,0.756,1.687,1.686,1.687h31.014c0.929,0,1.686-0.757,1.686-1.687
			V7.931c0-0.929-0.757-1.686-1.686-1.686H23.896c-0.93,0-1.687,0.757-1.687,1.686v2.926c0,0.282-0.227,0.509-0.508,0.509H6.194z"/>
	</g>
	<circle fill="#9F3E16" cx="16.078" cy="19.301" r="2.253"/>
	<polygon fill="#9F3E16" points="19.7,22.474 14.77,27.371 32.648,27.371 27.027,19.483 22.33,24.907 	"/>
</g>
</svg>
