<?xml version="1.0" encoding="utf-8"?>
<!-- Generator: Adobe Illustrator 24.2.1, SVG Export Plug-In . SVG Version: 6.00 Build 0)  -->
<svg version="1.1" id="Layer_1" xmlns="http://www.w3.org/2000/svg" xmlns:xlink="http://www.w3.org/1999/xlink" x="0px" y="0px"
	 viewBox="0 0 3118.1 766.6" style="enable-background:new 0 0 3118.1 766.6;" xml:space="preserve">
<style type="text/css">
	.st0{fill:#FFFFFF;}
	.st1{enable-background:new    ;}
	.st2{clip-path:url(#SVGID_2_);enable-background:new    ;}
	.st3{fill:#8C9A24;}
	.st4{fill:#899723;}
	.st5{fill:#859422;}
	.st6{clip-path:url(#SVGID_4_);enable-background:new    ;}
	.st7{fill:#76821C;}
	.st8{fill:#94A327;}
	.st9{fill:#74801B;}
	.st10{clip-path:url(#SVGID_6_);enable-background:new    ;}
	.st11{fill:#79861D;}
	.st12{fill:#7C891E;}
	.st13{fill:#7F8D20;}
	.st14{fill:#829021;}
	.st15{fill:#B2C130;}
	.st16{fill:#231F20;}
	.st17{fill:#ACB339;}
</style>
<g>
	<g>
		<g>
			<path class="st0" d="M422.3,26.4C422.3,26.4,422.3,26.4,422.3,26.4c0.1,0,0.3,0,0.4,0L422.3,26.4z"/>
			<path class="st0" d="M3021.1,434.1l76.8-104.4c16.2-21.9,19.7-43.8,19.7-58.4c0-52.1-43.5-94.6-97-94.6h-87.1
				c-7,0-13.9,0.7-20.6,2v-20.1c0-55.2-44.9-100-100.1-100H2739c-55.5,0-100.7,44.9-100.7,100v15.5c-13.8-1.4-29.3-2.2-46.1-2.2
				c-64.9,0-119.8,21.7-159.6,59.9c-31.9-29.4-84.6-59.9-166.4-59.9c-43.1,0-82,8.9-115.3,25.3v-38.6c0-55.2-44.6-100-99.4-100
				h-74.3c-55.5,0-100.6,44.9-100.6,100v36.8c-22.9-10.6-48.3-17.9-76.2-21.3v-15.5c0-55.2-44.9-100-100-100h-73.7
				c-55.5,0-100.6,44.9-100.6,100v18.2c-0.1,0-0.2,0-0.3,0c-10.7-43.5-50.3-76.8-96-76.8h-1.8c-5,0-10,0.4-14.9,1.3
				c0,0-74.9,12.9-75.1,12.9c-0.7,0.1-1.4,0.3-2.2,0.5c-15.8-34.5-50.6-58.6-91-58.6h-79.2c-55.2,0-100,44.9-100,100v46
				c-26.1-14.3-56-23.9-89.3-28v-15.5c0-55.2-44.9-100-100-100h-73.7c-55.5,0-100.6,44.9-100.6,100v31.6
				c-12.4-27.8-33.2-50.9-60.3-65.6l0,0L491.7,43.2c-2.2-1.2-4.4-2.3-6.6-3.4c-0.9-0.4-1.9-0.9-2.8-1.3c-1.8-0.8-3.7-1.6-5.6-2.4
				c-1.4-0.6-2.8-1.1-4.2-1.6c-7.9-2.9-16.2-5-24.6-6.4c-0.2,0-0.4-0.1-0.6-0.1c-1.1-0.2-2.2-0.3-3.3-0.5c-2.8-0.4-5.7-0.7-8.7-0.9
				c-1.2-0.1-2.5-0.2-3.7-0.2c-0.3,0-0.5,0-0.8,0c-1.6-0.1-3.3-0.1-4.9-0.1c-1.1,0-2.2,0-3.6,0c-1.4,0-2.9,0.1-4,0.1
				c-4.3,0.2-8.4,0.6-12.6,1.2L136.2,65.6c-4.5,0.6-9,1.5-13.8,2.6c-1.2,0.3-2.4,0.6-3.6,0.9c-3.3,0.9-6.6,1.9-9.8,3
				c-1.3,0.4-2.5,0.9-3.5,1.2c-4.1,1.5-7.8,3.1-11.3,4.7c-1.1,0.5-2.3,1.1-3.4,1.7c-0.3,0.1-0.6,0.3-0.9,0.5c-3.2,1.6-6,3.2-8.9,4.8
				c-1.4,0.8-2.7,1.7-4.1,2.5c-1.7,1.1-3.4,2.1-5.3,3.5c-1.1,0.7-2.1,1.5-3.1,2.3c-3.6,2.6-7.1,5.4-10.4,8.3
				c-0.7,0.6-1.4,1.2-2.1,1.8c-1.5,1.3-2.7,2.5-3.7,3.5c-2.3,2.2-4.5,4.4-6.6,6.7c-1.1,1.1-2.1,2.2-3,3.3c-0.8,0.9-1.6,1.9-2.4,2.8
				c-2.3,2.8-4.5,5.6-6.6,8.3c-0.7,1-1.5,2-2.2,3c-0.3,0.4-1.1,1.5-1.2,1.8c-2.5,3.6-4.8,7.4-7.1,11.3c-0.6,1-1.2,2-1.7,3
				c-0.2,0.3-0.3,0.6-0.5,0.9c-0.9,1.6-1.7,3.3-2.4,4.8c-0.6,1.3-1.3,2.6-1.9,4c-1.2,2.7-2.4,5.4-3.5,8.2c-0.2,0.5-0.5,1.1-0.7,1.7
				c-0.3,0.8-0.6,1.5-0.9,2.3c-0.9,2.5-1.7,5-2.5,7.5c-0.6,1.7-1.1,3.5-1.6,5.1c-1,3.5-1.7,6.6-2.3,9.4c-0.3,1.4-0.6,2.8-0.9,4.3
				c-1.8,9.6-2.7,19.3-2.7,28.7L1.2,515c-0.1,53.8,27.9,102.5,73.1,127l150.1,81.7c1.2,0.6,2.4,1.3,3.6,1.8
				c19.1,9.7,40.4,14.8,62.1,14.8h0c6.6,0,13.2-0.5,19.8-1.4l269.6-37.9c55.8-7.8,102.7-48.1,123.2-100.4
				c3.7,27.1,19.9,73.3,85.6,88.3c47.3,11.6,101.9,18.2,149.9,18.2c59.6,0,110.6-15.9,150.1-44.7c18.3,24,47.2,39.6,79.6,39.6h74.3
				c29.6,0,56.2-12.9,74.5-33.4c43.8,34.4,96.7,38.6,133,38.6c29.5,0,63.7-2.6,87.5-6.7c18.3-3,34.6-10.3,47.9-20.7
				c8,3.7,17.1,6.8,27.3,9.2c47.3,11.6,101.9,18.2,149.9,18.2c54.9,0,102.5-13.5,140.5-38.1c18.4,20.1,44.8,32.7,74.1,32.7h74.3
				c29.6,0,56.3-13.2,74.5-34.1c38.2,25.5,85.9,39.6,140.2,39.6c81.8,0,134.5-30.5,166.4-59.9c39.8,38.2,94.7,59.9,159.6,59.9
				c45.8,0,81-6.4,102.4-11.8c0.4-0.1,0.9-0.2,1.3-0.3c1.4-0.4,2.7-0.9,4.1-1.3c12,5.1,25.2,7.9,39.1,7.9h73.7
				c20.8,0,40.2-6.4,56.2-17.4c16.8,11.5,36.7,17.4,58.9,17.4h92c52.8,0,95.8-43,95.8-95.8c0-24.9-8.3-43.4-17.7-56.2L3021.1,434.1z
				"/>
		</g>
		<g>
			<g>
				<g class="st1">
					<g class="st1">
						<g>
							<defs>
								<path id="SVGID_1_" d="M449.2,120.1c50.1,27.2,100.1,54.4,150.1,81.6c-9.1-4.9-19.8-7-31.3-5.4l-150.1-81.7
									C429.5,113.1,440.2,115.1,449.2,120.1z"/>
							</defs>
							<clipPath id="SVGID_2_">
								<use xlink:href="#SVGID_1_"  style="overflow:visible;"/>
							</clipPath>
							<g class="st2">
								<path class="st3" d="M568,196.3l-150.1-81.7c7.1-1,13.9-0.6,20.3,1l150.1,81.6C582,195.8,575.2,195.3,568,196.3"/>
								<path class="st4" d="M588.3,197.4l-150.1-81.6c3.2,0.8,6.3,2,9.3,3.4l150.1,81.6C594.6,199.4,591.5,198.2,588.3,197.4"/>
								<path class="st5" d="M597.6,200.8l-150.1-81.6c0.6,0.3,1.2,0.6,1.8,0.9l150.1,81.6C598.8,201.4,598.2,201.1,597.6,200.8"/>
							</g>
						</g>
					</g>
					<g class="st1">
						<g>
							<defs>
								<path id="SVGID_3_" d="M266.4,646.5l-150.1-81.7C99.9,555.9,89,537.6,89,515.1l150.1,81.7
									C239.1,619.3,250,637.6,266.4,646.5z"/>
							</defs>
							<clipPath id="SVGID_4_">
								<use xlink:href="#SVGID_3_"  style="overflow:visible;"/>
							</clipPath>
							<g class="st6">
								<path class="st7" d="M266.4,646.5l-150.1-81.7C99.9,555.9,89,537.6,89,515.1l150.1,81.7C239.1,619.3,250,637.6,266.4,646.5"
									/>
							</g>
						</g>
					</g>
					<g>
						<polygon class="st8" points="298.4,234.2 148.3,152.6 417.9,114.7 568,196.3 						"/>
					</g>
					<g>
						<polygon class="st9" points="239.2,596.8 89.1,515.1 89.6,224.1 239.7,305.8 						"/>
					</g>
					<g class="st1">
						<g>
							<defs>
								<path id="SVGID_5_" d="M239.7,305.8L89.6,224.1c0-35,26.4-67,58.7-71.5l150.1,81.6C266.1,238.8,239.8,270.8,239.7,305.8z"/>
							</defs>
							<clipPath id="SVGID_6_">
								<use xlink:href="#SVGID_5_"  style="overflow:visible;"/>
							</clipPath>
							<g class="st10">
								<path class="st7" d="M239.7,305.8L89.6,224.1c0-8.6,1.6-17,4.5-24.9l150.1,81.7C241.3,288.8,239.7,297.2,239.7,305.8"/>
								<path class="st11" d="M244.2,280.9L94.1,199.2c1.3-3.4,2.7-6.7,4.4-9.9L248.7,271C247,274.2,245.5,277.5,244.2,280.9"/>
								<path class="st12" d="M248.7,271L98.6,189.3c1.5-2.7,3.1-5.3,4.8-7.8l150.1,81.7C251.7,265.7,250.1,268.3,248.7,271"/>
								<path class="st13" d="M253.5,263.2l-150.1-81.7c1.6-2.3,3.4-4.6,5.3-6.7l150.1,81.6C256.9,258.7,255.1,260.9,253.5,263.2"/>
								<path class="st14" d="M258.7,256.5l-150.1-81.6c1.9-2.2,3.9-4.2,6-6.1l150.1,81.7C262.6,252.4,260.6,254.4,258.7,256.5"/>
								<path class="st5" d="M264.7,250.5l-150.1-81.7c2.2-2,4.6-3.9,7.1-5.6l150.1,81.7C269.4,246.6,267,248.4,264.7,250.5"/>
								<path class="st4" d="M271.8,244.9l-150.1-81.7c3-2.1,6.2-3.9,9.5-5.5l150.1,81.7C278,240.9,274.8,242.8,271.8,244.9"/>
								<path class="st3" d="M281.3,239.4l-150.1-81.7c5.4-2.5,11.1-4.3,17.1-5.1l150.1,81.6C292.5,235.1,286.7,236.8,281.3,239.4"
									/>
							</g>
						</g>
					</g>
					<g>
						<path class="st15" d="M568,196.3c32.4-4.5,58.6,20.1,58.5,55.1l-0.5,291c-0.1,35-26.4,67-58.8,71.5l-269.7,37.9
							c-32.3,4.5-58.5-20.1-58.4-55.1l0.5-291c0.1-35,26.4-67,58.7-71.6L568,196.3z"/>
					</g>
				</g>
			</g>
			<path class="st16" d="M938.2,619.2c-46.9,0-95.1-7.3-129.8-15.8c-16.5-3.6-18.9-7.9-18.9-17.7V158.6c0-6.7,6.1-12.2,12.8-12.2
				H876c6.7,0,12.2,5.5,12.2,12.2V264c17.7-2.4,37.8-4.3,50-4.3c103,0,153,60.3,153,156v47.5C1091.1,562,1036.9,619.2,938.2,619.2z
				 M992.4,415.7c0-42.7-11-74.3-54.2-74.3c-14.6,0-35.3,1.2-50,3v190.1c11.6,1.8,29.9,3.7,50,3.7c43.3,0,54.2-31.7,54.2-75V415.7z"
				/>
			<path class="st16" d="M1242.2,614.1h-74.3c-6.7,0-12.2-5.5-12.2-12.2V277.1c0-6.7,5.5-12.2,12.2-12.2h74.3
				c6.7,0,12.2,5.5,12.2,12.2v324.8C1254.4,608.6,1248.9,614.1,1242.2,614.1z"/>
			<path class="st17" d="M1244.7,225h-79.2c-6.7,0-12.2-5.5-12.2-12.2v-56.7c0-6.7,5.5-12.2,12.2-12.2h79.2
				c6.7,0,12.2,5.5,12.2,12.2v56.7C1256.8,219.5,1251.3,225,1244.7,225z"/>
			<path class="st16" d="M1524.1,338.3h-83.5v181c0,21.3,9.8,25,36,25h45.7c7.9,0,12.8,3.7,12.8,10.4v46.9c0,6.7-4.3,11-12.2,12.2
				c-17.7,3-46.9,5.5-73.1,5.5c-68.3,0-108.5-21.3-108.5-100.5V212.8c0-6.7,5.5-11,12.2-12.2l74.3-12.8c0.6,0,1.2,0,1.8,0
				c5.5,0,11,6.1,11,12.2v64.6h83.5c6.7,0,12.2,5.5,12.2,12.2v49.3C1536.3,332.8,1530.8,338.3,1524.1,338.3z"/>
			<path class="st16" d="M1762.5,619.2c-46.9,0-95.1-7.3-129.8-15.8c-16.4-3.6-18.9-7.9-18.9-17.7V158.6c0-6.7,6.1-12.2,12.8-12.2
				h73.7c6.7,0,12.2,5.5,12.2,12.2V264c17.7-2.4,37.8-4.3,50-4.3c103,0,152.9,60.3,152.9,156v47.5
				C1915.4,562,1861.2,619.2,1762.5,619.2z M1816.7,415.7c0-42.7-11-74.3-54.2-74.3c-14.6,0-35.3,1.2-50,3v190.1
				c11.6,1.8,29.9,3.7,50,3.7c43.2,0,54.2-31.7,54.2-75V415.7z"/>
			<path class="st16" d="M2051.5,613.8h-74.3c-6.7,0-12.8-6.1-12.8-12.8V158.6c0-6.7,6.1-12.2,12.8-12.2h74.3
				c6.7,0,11.6,5.5,11.6,12.2V601C2063.1,607.7,2058.2,613.8,2051.5,613.8z"/>
			<path class="st16" d="M2266.2,619.2c-98.7,0-153-61.5-153-158.4v-42.7c0-96.9,54.2-158.4,153-158.4
				c98.7,0,152.3,61.5,152.3,158.4v42.7C2418.5,557.7,2364.9,619.2,2266.2,619.2z M2320.4,418.2c0-49.4-18.9-74.3-54.2-74.3
				c-35.3,0-54.8,25-54.8,74.3v42.7c0,49.3,19.5,74.9,54.8,74.9c35.4,0,54.2-25.6,54.2-74.9V418.2z"/>
			<path class="st16" d="M2673.2,610.1c-17.1,4.3-44.5,9.1-81,9.1c-85.9,0-142-54.8-142-154.2v-51.2c0-99.3,56.1-154.2,142-154.2
				c36.6,0,64,4.9,81,9.1c9.2,2.4,12.8,4.9,12.8,14v54.2c0,6.1-5.5,10.4-11.6,10.4c-0.6,0-0.6,0-1.2,0c-22.5-2.4-39.6-4.3-74.3-4.3
				c-27.4,0-50,16.4-50,70.7v51.2c0,54.2,22.5,70.7,50,70.7c34.7,0,51.8-1.8,74.3-4.3c0.6,0,0.6,0,1.2,0c6.1,0,11.6,4.3,11.6,10.4
				v54.2C2686.1,605.2,2682.4,607.7,2673.2,610.1z"/>
			<path class="st16" d="M3027.3,277.4l-113.3,154.2L3026.6,601c1.2,1.2,1.2,3,1.2,4.9c0,4.3-3.1,7.9-7.9,7.9h-92
				c-6.7,0-10.4-1.2-15.2-8.5L2825,462V601c0,6.7-5.5,12.8-12.2,12.8H2739c-6.7,0-12.8-6.1-12.8-12.8V158.6
				c0-6.7,6.1-12.2,12.8-12.2h73.7c6.7,0,12.2,5.5,12.2,12.2v254.7l92.6-139.6c4.9-7.3,11-9.1,15.8-9.1h87.1c5.5,0,9.2,3.1,9.2,6.7
				C3029.7,273.1,3029.1,275,3027.3,277.4z"/>
		</g>
	</g>
</g>
</svg>
