<?xml version="1.0" encoding="utf-8"?>
<!-- Generator: Adobe Illustrator 16.0.0, SVG Export Plug-In . SVG Version: 6.00 Build 0)  -->
<!DOCTYPE svg PUBLIC "-//W3C//DTD SVG 1.1//EN" "http://www.w3.org/Graphics/SVG/1.1/DTD/svg11.dtd">
<svg version="1.1" id="Layer_1" xmlns="http://www.w3.org/2000/svg" xmlns:xlink="http://www.w3.org/1999/xlink" x="0px" y="0px"
	 width="40px" height="40px" viewBox="0 0 40 40" enable-background="new 0 0 40 40" xml:space="preserve">
<g id="Layer_1_1_">
</g>
<g>
	<g>
		<path fill="#2E3B90" d="M39.998,35.154c0,2.664-2.18,4.846-4.846,4.846H4.847c-2.665,0-4.846-2.182-4.846-4.846V4.846
			C0.001,2.181,2.182,0,4.847,0h30.305c2.666,0,4.846,2.181,4.846,4.846V35.154z"/>
		<g>
			<path fill="#FFFFFF" d="M8.257,33.122c-0.226,0-0.452-0.087-0.624-0.259c-0.344-0.344-0.344-0.902,0-1.246l23.969-23.97
				c0.347-0.344,0.901-0.344,1.246,0c0.346,0.345,0.346,0.902,0,1.246L8.879,32.863C8.708,33.035,8.482,33.122,8.257,33.122z"/>
			<path fill="#FFFFFF" d="M33.656,9.078c0,1.277-1.035,2.312-2.313,2.312c-1.274,0-2.313-1.035-2.313-2.312
				c0-1.277,1.037-2.312,2.313-2.312C32.621,6.767,33.656,7.801,33.656,9.078z"/>
		</g>
		<g>
			<g>
				<g>
					<path fill="#4DCCBE" d="M25.744,29.1c0-1.466,1.188-2.656,2.656-2.654c1.467,0,2.654,1.188,2.656,2.654
						c-0.002,1.467-1.189,2.656-2.656,2.656C26.932,31.755,25.744,30.566,25.744,29.1z"/>
					<path fill="#00AC95" d="M28.4,31.977L28.4,31.977c-1.588,0-2.877-1.291-2.877-2.877s1.289-2.875,2.875-2.875
						c1.588,0,2.877,1.289,2.879,2.875C31.275,30.686,29.986,31.977,28.4,31.977z M28.4,26.664c-1.344,0-2.438,1.093-2.438,2.438
						c0,1.34,1.095,2.436,2.438,2.437c1.342,0,2.434-1.095,2.436-2.438C30.834,27.757,29.742,26.664,28.4,26.664z"/>
				</g>
				<g>
					<path fill="#4DCCBE" d="M18.159,29.102c0-1.468,1.188-2.656,2.657-2.656c1.465,0,2.654,1.188,2.654,2.656
						c0,1.465-1.189,2.654-2.656,2.654C19.348,31.756,18.159,30.564,18.159,29.102z"/>
					<path fill="#00AC95" d="M20.814,31.977c-1.585,0-2.875-1.291-2.875-2.875c0-1.588,1.291-2.877,2.877-2.877
						c1.584,0,2.875,1.291,2.875,2.877C23.691,30.686,22.4,31.977,20.814,31.977z M20.816,26.664c-1.344,0-2.438,1.093-2.438,2.438
						c0,1.342,1.093,2.437,2.437,2.437c1.344,0,2.436-1.095,2.436-2.437C23.25,27.757,22.158,26.664,20.816,26.664z"/>
				</g>
				<g>
					<circle fill="#4DCCBE" cx="28.398" cy="21.831" r="2.657"/>
					<path fill="#00AC95" d="M28.4,24.707c-1.586,0-2.877-1.29-2.877-2.875c0-1.588,1.291-2.877,2.877-2.877
						c0.768,0,1.49,0.299,2.033,0.842c0.543,0.544,0.842,1.268,0.842,2.035C31.275,23.417,29.986,24.707,28.4,24.707z M28.4,19.395
						c-1.344,0-2.438,1.094-2.438,2.437c0.002,1.343,1.095,2.436,2.438,2.436c1.343,0,2.434-1.093,2.434-2.436
						c0-0.65-0.252-1.264-0.711-1.724C29.662,19.648,29.051,19.395,28.4,19.395z"/>
				</g>
			</g>
			<g>
				<g>
					<path fill="#4DCCBE" d="M13.968,11.833c0,1.466-1.189,2.656-2.657,2.656c-1.467,0-2.655-1.19-2.656-2.656
						c0.001-1.467,1.189-2.657,2.656-2.657C12.778,9.178,13.968,10.366,13.968,11.833z"/>
					<path fill="#00AC95" d="M11.312,14.708L11.312,14.708c-1.586,0-2.876-1.289-2.876-2.875c0.001-1.586,1.291-2.876,2.875-2.876
						c1.587,0,2.878,1.291,2.878,2.876C14.188,13.419,12.897,14.708,11.312,14.708z M11.311,9.397c-1.342,0-2.435,1.093-2.436,2.437
						c0.001,1.343,1.094,2.435,2.436,2.435h0.001c1.343,0,2.435-1.092,2.436-2.436C13.748,10.49,12.655,9.398,11.311,9.397z"/>
				</g>
				<g>
					<path fill="#4DCCBE" d="M21.552,11.832c0,1.467-1.189,2.657-2.657,2.657c-1.467,0-2.656-1.19-2.656-2.657
						c0-1.466,1.188-2.655,2.656-2.655C20.363,9.177,21.552,10.366,21.552,11.832z"/>
					<path fill="#00AC95" d="M18.895,14.71L18.895,14.71c-1.586-0.002-2.875-1.292-2.875-2.878c0-1.585,1.29-2.876,2.875-2.876
						c1.587,0,2.876,1.29,2.876,2.876C21.771,13.419,20.481,14.71,18.895,14.71z M18.895,9.397c-1.343,0-2.435,1.092-2.435,2.435
						c0,1.344,1.092,2.437,2.435,2.437c1.344,0,2.436-1.092,2.436-2.437C21.331,10.49,20.239,9.397,18.895,9.397z"/>
				</g>
				<g>
					<path fill="#4DCCBE" d="M13.968,19.102c0,1.466-1.189,2.657-2.657,2.657c-1.467,0-2.656-1.188-2.655-2.657
						c0-1.466,1.188-2.655,2.655-2.655C12.778,16.446,13.968,17.636,13.968,19.102z"/>
					<path fill="#00AC95" d="M11.311,21.979c-0.768,0-1.49-0.299-2.034-0.842c-0.542-0.544-0.842-1.266-0.841-2.035
						c0-1.585,1.289-2.876,2.875-2.876s2.877,1.29,2.878,2.876C14.188,20.688,12.896,21.979,11.311,21.979z M11.311,16.667
						c-1.342,0-2.435,1.092-2.435,2.435c-0.001,0.65,0.253,1.263,0.713,1.724c0.46,0.46,1.071,0.713,1.722,0.713
						c1.343,0,2.437-1.093,2.438-2.437C13.747,17.759,12.654,16.667,11.311,16.667z"/>
				</g>
			</g>
		</g>
	</g>
	<g>
		<path fill="#FFFFFF" d="M33.637,33.859l-1.922-2.908h1.078l1.482,2.258l1.348-2.258h0.988l-1.842,2.908l1.986,3.011h-1.09
			l-1.504-2.358l-1.539,2.358h-1L33.637,33.859z"/>
	</g>
	<g>
		<path fill="#FFFFFF" d="M4.074,11.145V10.46c0.146,0.022,0.359,0.09,0.573,0.09c0.572,0,0.932-0.101,1.179-0.742l0.191-0.494
			l-2.28-5.706h0.989l1.741,4.504h0.022l1.606-4.504h0.909L6.68,9.898c-0.394,1.056-0.888,1.415-1.864,1.415
			C4.545,11.313,4.242,11.224,4.074,11.145z"/>
	</g>
</g>
</svg>
