<?xml version="1.0" encoding="utf-8"?>
<!-- Generator: Adobe Illustrator 16.0.0, SVG Export Plug-In . SVG Version: 6.00 Build 0)  -->
<!DOCTYPE svg PUBLIC "-//W3C//DTD SVG 1.1//EN" "http://www.w3.org/Graphics/SVG/1.1/DTD/svg11.dtd">
<svg version="1.1" id="Layer_1" xmlns="http://www.w3.org/2000/svg" xmlns:xlink="http://www.w3.org/1999/xlink" x="0px" y="0px"
	 width="40px" height="40px" viewBox="0 0 40 40" enable-background="new 0 0 40 40" xml:space="preserve">
<g id="Layer_1_1_">
</g>
<g>
	<g>
		<g>
			<path fill="#FFBBAD" d="M15.104,22.804c0.004,1.776-1.432,3.218-3.208,3.223l0,0c-1.776,0.004-3.22-1.434-3.223-3.21L8.639,7.336
				c-0.003-1.776,1.434-3.22,3.21-3.224l0,0c1.776-0.003,3.22,1.434,3.223,3.21L15.104,22.804z"/>
			<path fill="#FFBBAD" d="M27.463,21.278c0.005,1.63-1.315,2.955-2.948,2.959l0,0c-1.629,0.004-2.955-1.316-2.957-2.947
				L21.525,7.073c-0.003-1.632,1.316-2.957,2.948-2.96l0,0c1.632-0.003,2.958,1.316,2.96,2.948L27.463,21.278z"/>
			<path fill="#FFBBAD" d="M32.932,29.341c0.002,1.502-1.211,2.723-2.714,2.727l0,0c-1.504,0.004-2.723-1.212-2.726-2.715
				l-0.029-15.958c-0.002-1.502,1.211-2.723,2.716-2.727l0,0c1.502-0.002,2.724,1.212,2.726,2.716L32.932,29.341z"/>
			<path fill="#FFBBAD" d="M21.569,22.804c0.005,1.776-1.433,3.218-3.209,3.223l0,0c-1.776,0.004-3.22-1.434-3.224-3.21L15.104,4.71
				c-0.003-1.777,1.434-3.22,3.21-3.225l0,0c1.778-0.003,3.22,1.434,3.225,3.21L21.569,22.804z"/>
			<rect x="13.872" y="18.71" fill="#FFBBAD" width="4.909" height="3.29"/>
			<path fill="#FFBBAD" d="M32.932,29.199c0,5.199-4.216,9.416-9.417,9.416h-7.03c-5.202,0-9.417-4.217-9.417-9.416l0,0
				c0-5.2,1.588-9.417,6.79-9.417h9.657C28.716,19.782,32.932,23.999,32.932,29.199L32.932,29.199z"/>
			<path fill="#FFDCCC" d="M7.068,20.781c0-1.776,1.44-3.217,3.216-3.217l0,0c1.777,0,3.217,1.441,3.217,3.217v9.575
				c0,1.775-1.44,3.216-3.217,3.216l0,0c-1.776,0-3.216-1.44-3.216-3.216V20.781z"/>
			<path fill="#FFDCCC" d="M7.068,27.101c0,0.535,0.044,3.159,0.131,3.669c0.748,4.453,4.621,7.846,9.286,7.846c0,0,2.793,0,5.138,0
				C21.623,30.358,16.841,27.101,7.068,27.101z"/>
			<path fill="#E37165" d="M21.623,38.933c-0.174,0-0.317-0.142-0.317-0.317c0-5.91-2.504-9.265-7.879-10.558
				c-0.143-0.034-0.244-0.163-0.244-0.31v-6.967c0-1.599-1.3-2.899-2.899-2.899c-0.482,0-0.959,0.121-1.381,0.35
				c-0.154,0.084-0.347,0.027-0.431-0.127c-0.084-0.154-0.027-0.348,0.127-0.432c0.515-0.279,1.097-0.427,1.685-0.427
				c1.95,0,3.535,1.585,3.535,3.535V27.5c5.539,1.415,8.122,4.953,8.122,11.115C21.941,38.791,21.8,38.933,21.623,38.933z"/>
			<path fill="#E37165" d="M15.072,18.708c-0.187,0-0.337-0.15-0.337-0.336V5.558c0-0.187,0.15-0.338,0.337-0.338
				c0.186,0,0.338,0.151,0.338,0.338v12.814C15.41,18.558,15.258,18.708,15.072,18.708z"/>
			<path fill="#E37165" d="M21.623,19.18c-0.186,0-0.337-0.152-0.337-0.338V4.268c0-0.186,0.151-0.337,0.337-0.337
				c0.187,0,0.338,0.152,0.338,0.337v14.574C21.961,19.028,21.81,19.18,21.623,19.18z"/>
			<path fill="#E37165" d="M27.468,21.751c-0.188,0-0.337-0.15-0.337-0.337V10.84c0-0.186,0.148-0.338,0.337-0.338
				c0.187,0,0.338,0.152,0.338,0.338v10.574C27.806,21.601,27.654,21.751,27.468,21.751z"/>
		</g>
		<path fill="#61AB83" d="M18.337,33.098c-0.119,0-0.238-0.028-0.35-0.088c-0.36-0.193-0.495-0.642-0.301-1.001l6.159-11.441
			c0.193-0.36,0.641-0.494,1.001-0.301c0.359,0.193,0.494,0.641,0.301,1l-6.159,11.441C18.854,32.957,18.6,33.098,18.337,33.098z"/>
		<path fill="#61AB83" d="M18.781,33.085c-0.189,0-0.378-0.073-0.522-0.217c-0.289-0.288-0.289-0.757,0-1.046l11.416-11.427
			c0.289-0.289,0.756-0.289,1.045,0c0.289,0.289,0.289,0.755,0.002,1.044L19.303,32.867C19.159,33.012,18.971,33.085,18.781,33.085z
			"/>
		<g>
			<path fill="#61AB83" d="M24.495,21.656c-0.408,0-0.738-0.33-0.738-0.739V7.323c0-0.407,0.33-0.739,0.738-0.739
				c0.409,0,0.739,0.332,0.739,0.739v13.594C25.234,21.326,24.904,21.656,24.495,21.656z"/>
			<g>
				<circle fill="#17735E" cx="24.496" cy="7.323" r="1.742"/>
				<path fill="#61AB83" d="M24.495,9.558c-1.232,0-2.233-1.002-2.233-2.235c0-1.232,1.001-2.235,2.233-2.235
					c1.231,0,2.234,1.003,2.234,2.235C26.729,8.556,25.727,9.558,24.495,9.558z M24.495,6.074c-0.689,0-1.25,0.561-1.25,1.249
					c0,0.69,0.561,1.25,1.25,1.25c0.69,0,1.251-0.56,1.251-1.25C25.746,6.634,25.186,6.074,24.495,6.074z"/>
			</g>
			<g>
				<circle fill="#17735E" cx="24.496" cy="20.917" r="1.742"/>
				<path fill="#61AB83" d="M24.495,23.152c-1.232,0-2.233-1.003-2.233-2.235c0-1.232,1.001-2.235,2.233-2.235
					c1.231,0,2.234,1.003,2.234,2.235C26.729,22.149,25.727,23.152,24.495,23.152z M24.495,19.667c-0.689,0-1.25,0.562-1.25,1.25
					s0.561,1.25,1.25,1.25c0.69,0,1.251-0.562,1.251-1.25S25.186,19.667,24.495,19.667z"/>
			</g>
		</g>
		<g>
			<path fill="#61AB83" d="M30.198,21.656c-0.408,0-0.738-0.33-0.738-0.739v-7.901c0-0.408,0.33-0.739,0.738-0.739
				c0.409,0,0.739,0.332,0.739,0.739v7.901C30.938,21.326,30.607,21.656,30.198,21.656z"/>
			<g>
				<circle fill="#17735E" cx="30.198" cy="13.016" r="1.742"/>
				<path fill="#61AB83" d="M30.198,15.252c-1.232,0-2.233-1.003-2.233-2.236c0-1.232,1.001-2.235,2.233-2.235
					c1.23,0,2.234,1.003,2.234,2.235C32.433,14.249,31.429,15.252,30.198,15.252z M30.198,11.767c-0.689,0-1.25,0.56-1.25,1.249
					c0,0.69,0.561,1.25,1.25,1.25c0.688,0,1.248-0.56,1.248-1.25C31.446,12.327,30.886,11.767,30.198,11.767z"/>
			</g>
			<g>
				<circle fill="#17735E" cx="30.198" cy="20.917" r="1.742"/>
				<path fill="#61AB83" d="M30.198,23.152c-1.232,0-2.233-1.003-2.233-2.235c0-1.232,1.001-2.235,2.233-2.235
					c1.23,0,2.234,1.003,2.234,2.235C32.433,22.149,31.429,23.152,30.198,23.152z M30.198,19.667c-0.689,0-1.25,0.562-1.25,1.25
					s0.561,1.25,1.25,1.25c0.688,0,1.248-0.562,1.248-1.25S30.886,19.667,30.198,19.667z"/>
			</g>
		</g>
		<path fill="#61AB83" d="M18.338,33.098c-0.258,0-0.507-0.135-0.645-0.376L11.229,21.28c-0.201-0.354-0.076-0.806,0.28-1.007
			c0.354-0.2,0.806-0.076,1.006,0.28l6.465,11.441c0.201,0.354,0.076,0.807-0.279,1.007C18.586,33.066,18.462,33.098,18.338,33.098z
			"/>
		<g>
			<path fill="#61AB83" d="M11.872,21.656c-0.409,0-0.739-0.33-0.739-0.739V7.323c0-0.407,0.331-0.739,0.739-0.739
				c0.407,0,0.739,0.332,0.739,0.739v13.594C12.611,21.326,12.279,21.656,11.872,21.656z"/>
			<g>
				<circle fill="#17735E" cx="11.872" cy="7.323" r="1.742"/>
				<path fill="#61AB83" d="M11.872,9.558c-1.232,0-2.235-1.002-2.235-2.235c0-1.232,1.003-2.235,2.235-2.235
					c1.231,0,2.235,1.003,2.235,2.235C14.107,8.556,13.104,9.558,11.872,9.558z M11.872,6.074c-0.689,0-1.249,0.561-1.249,1.249
					c0,0.69,0.56,1.25,1.249,1.25c0.688,0,1.249-0.56,1.249-1.25C13.121,6.634,12.561,6.074,11.872,6.074z"/>
			</g>
			<g>
				<circle fill="#17735E" cx="11.872" cy="20.917" r="1.742"/>
				<path fill="#61AB83" d="M11.872,23.152c-1.232,0-2.235-1.003-2.235-2.235c0-1.232,1.003-2.235,2.235-2.235
					c1.231,0,2.235,1.003,2.235,2.235C14.107,22.149,13.104,23.152,11.872,23.152z M11.872,19.667c-0.689,0-1.249,0.562-1.249,1.25
					s0.56,1.25,1.249,1.25c0.688,0,1.249-0.562,1.249-1.25S12.561,19.667,11.872,19.667z"/>
			</g>
		</g>
		<g>
			<path fill="#61AB83" d="M18.337,32.514c-0.407,0-0.739-0.331-0.739-0.74V4.552c0-0.409,0.332-0.739,0.739-0.739
				c0.409,0,0.739,0.331,0.739,0.739v27.221C19.076,32.183,18.746,32.514,18.337,32.514z"/>
			<g>
				<circle fill="#17735E" cx="18.337" cy="4.551" r="1.742"/>
				<path fill="#61AB83" d="M18.337,6.787c-1.232,0-2.235-1.003-2.235-2.236c0-1.232,1.003-2.234,2.235-2.234
					s2.234,1.002,2.234,2.234C20.571,5.784,19.569,6.787,18.337,6.787z M18.337,3.302c-0.688,0-1.249,0.561-1.249,1.249
					c0,0.69,0.561,1.25,1.249,1.25s1.249-0.56,1.249-1.25C19.586,3.862,19.025,3.302,18.337,3.302z"/>
			</g>
			<g>
				<circle fill="#17735E" cx="18.337" cy="20.917" r="1.742"/>
				<path fill="#61AB83" d="M18.337,23.152c-1.232,0-2.235-1.003-2.235-2.235c0-1.232,1.003-2.235,2.235-2.235
					s2.234,1.003,2.234,2.235C20.571,22.149,19.569,23.152,18.337,23.152z M18.337,19.667c-0.688,0-1.249,0.562-1.249,1.25
					s0.561,1.25,1.249,1.25s1.249-0.562,1.249-1.25S19.025,19.667,18.337,19.667z"/>
			</g>
			<g>
				<circle fill="#17735E" cx="18.337" cy="32.358" r="1.742"/>
				<path fill="#61AB83" d="M18.337,34.594c-1.232,0-2.235-1.002-2.235-2.235c0-1.231,1.003-2.234,2.235-2.234
					s2.234,1.003,2.234,2.234C20.571,33.592,19.569,34.594,18.337,34.594z M18.337,31.108c-0.688,0-1.249,0.562-1.249,1.25
					c0,0.69,0.561,1.25,1.249,1.25s1.249-0.56,1.249-1.25C19.586,31.67,19.025,31.108,18.337,31.108z"/>
			</g>
		</g>
	</g>
	<path fill="#00825F" d="M18.32,1.485c1.774,0,3.213,1.436,3.218,3.21l0.002,2.08V6.773c0.003-0.02,0.008-0.038,0.01-0.058
		c0.01-0.077,0.02-0.151,0.034-0.226c0.008-0.038,0.018-0.073,0.027-0.11c0.012-0.055,0.024-0.111,0.041-0.165
		c0.013-0.04,0.027-0.078,0.039-0.117c0.018-0.049,0.034-0.099,0.054-0.147c0.018-0.039,0.035-0.078,0.055-0.116
		c0.02-0.045,0.041-0.092,0.063-0.136c0.02-0.038,0.044-0.076,0.063-0.112c0.026-0.043,0.049-0.086,0.076-0.126
		c0.024-0.037,0.049-0.072,0.075-0.106c0.027-0.041,0.057-0.08,0.086-0.118c0.026-0.034,0.056-0.067,0.083-0.099
		c0.032-0.037,0.066-0.073,0.098-0.109c0.029-0.03,0.062-0.061,0.094-0.09c0.034-0.034,0.07-0.067,0.107-0.099
		c0.031-0.028,0.063-0.056,0.098-0.082c0.039-0.032,0.078-0.061,0.12-0.089c0.034-0.024,0.068-0.049,0.103-0.072
		c0.041-0.028,0.086-0.054,0.13-0.08c0.036-0.021,0.07-0.042,0.109-0.061c0.044-0.024,0.091-0.046,0.138-0.067
		c0.039-0.018,0.075-0.035,0.112-0.051c0.049-0.02,0.101-0.038,0.151-0.055c0.037-0.013,0.076-0.028,0.115-0.039
		c0.052-0.017,0.107-0.029,0.161-0.042c0.04-0.009,0.074-0.02,0.113-0.027c0.061-0.012,0.124-0.021,0.186-0.029
		c0.034-0.003,0.066-0.011,0.098-0.013c0.098-0.01,0.196-0.016,0.294-0.016c0.002,0,0.005,0,0.005,0
		c1.629,0,2.953,1.319,2.955,2.948l0.029,6.333c-0.002-1.502,1.211-2.723,2.716-2.727c0,0,0.003,0,0.005,0
		c1.5,0,2.719,1.215,2.721,2.716l0.027,15.805c0,0.004,0,0.008,0,0.012c0,0.003,0,0.006,0,0.008v0.134
		c0,0.053-0.005,0.104-0.008,0.155c0,0.004,0,0.007,0,0.011c-0.005,0.149-0.012,0.299-0.024,0.445c0,0.009,0,0.018-0.002,0.024
		c-0.013,0.149-0.027,0.298-0.047,0.444c0,0.006-0.002,0.014-0.002,0.02c-0.021,0.148-0.042,0.295-0.069,0.44
		c-0.002,0.006-0.002,0.011-0.002,0.017c-0.027,0.146-0.057,0.29-0.091,0.435c-0.002,0.005-0.002,0.011-0.005,0.018
		c-0.031,0.143-0.068,0.283-0.11,0.424c0,0.007-0.002,0.013-0.005,0.019c-0.039,0.14-0.083,0.279-0.127,0.416
		c-0.002,0.006-0.005,0.013-0.007,0.019c-0.047,0.137-0.096,0.271-0.149,0.403c-0.003,0.009-0.005,0.016-0.008,0.023
		c-0.051,0.132-0.107,0.262-0.166,0.391c-0.003,0.01-0.008,0.018-0.01,0.027c-0.059,0.126-0.117,0.251-0.182,0.375
		c-0.005,0.011-0.01,0.021-0.017,0.033c-0.062,0.121-0.125,0.24-0.191,0.358c-0.01,0.013-0.017,0.025-0.024,0.039
		c-0.065,0.116-0.134,0.229-0.205,0.341c-0.007,0.016-0.02,0.029-0.027,0.044c-0.07,0.11-0.142,0.218-0.218,0.324
		c-0.012,0.018-0.024,0.034-0.036,0.052c-0.071,0.103-0.146,0.205-0.223,0.305c-0.018,0.02-0.032,0.039-0.047,0.059
		c-0.075,0.095-0.153,0.19-0.232,0.285c-0.017,0.021-0.036,0.041-0.054,0.063c-0.078,0.09-0.159,0.18-0.239,0.268
		c-0.022,0.021-0.044,0.045-0.066,0.068c-0.078,0.083-0.159,0.166-0.242,0.247c-0.024,0.024-0.052,0.049-0.076,0.073
		c-0.08,0.077-0.163,0.154-0.247,0.228c-0.029,0.027-0.059,0.052-0.088,0.078c-0.083,0.071-0.164,0.141-0.249,0.208
		c-0.032,0.028-0.069,0.054-0.104,0.082c-0.08,0.063-0.163,0.128-0.247,0.189c-0.039,0.028-0.078,0.056-0.117,0.084
		c-0.081,0.059-0.164,0.116-0.247,0.171c-0.042,0.029-0.088,0.057-0.132,0.084c-0.081,0.053-0.162,0.104-0.245,0.153
		c-0.049,0.029-0.098,0.058-0.146,0.086c-0.081,0.046-0.161,0.092-0.242,0.136c-0.054,0.028-0.107,0.055-0.161,0.082
		c-0.079,0.041-0.159,0.082-0.24,0.121c-0.057,0.026-0.115,0.053-0.176,0.079c-0.078,0.035-0.157,0.071-0.235,0.104
		c-0.063,0.026-0.127,0.05-0.19,0.074c-0.076,0.03-0.154,0.063-0.232,0.091c-0.066,0.024-0.135,0.046-0.203,0.068
		c-0.076,0.025-0.152,0.053-0.23,0.075c-0.07,0.023-0.145,0.042-0.218,0.063c-0.075,0.021-0.149,0.043-0.223,0.063
		c-0.078,0.02-0.156,0.036-0.237,0.054c-0.07,0.018-0.142,0.034-0.215,0.049c-0.081,0.018-0.164,0.031-0.247,0.045
		c-0.071,0.013-0.14,0.025-0.211,0.036c-0.088,0.014-0.179,0.023-0.267,0.034c-0.068,0.009-0.132,0.019-0.2,0.026
		c-0.103,0.01-0.208,0.016-0.311,0.022c-0.054,0.004-0.108,0.009-0.162,0.013c-0.159,0.007-0.32,0.012-0.481,0.012h-1.892h-5.138
		c-0.155,0-0.308-0.005-0.461-0.012h-0.001l0,0c-0.045-0.003-0.089-0.006-0.133-0.009c-0.005,0-0.01-0.001-0.016-0.001
		c-0.006,0-0.011-0.001-0.017-0.001c-0.097-0.007-0.193-0.014-0.289-0.022c-0.06-0.006-0.119-0.014-0.177-0.021
		c-0.092-0.01-0.182-0.021-0.273-0.034c-0.061-0.009-0.124-0.02-0.184-0.029c-0.088-0.015-0.173-0.029-0.26-0.047c0,0,0,0-0.001,0
		c0,0,0,0-0.001,0c-0.059-0.013-0.119-0.024-0.178-0.037c-0.001-0.001-0.003-0.001-0.005-0.001c-0.001,0-0.003-0.001-0.003-0.001
		c-0.085-0.019-0.169-0.038-0.252-0.058c-0.059-0.015-0.116-0.029-0.174-0.044c-0.002-0.001-0.003-0.001-0.006-0.003
		c-0.001,0-0.002,0-0.005-0.001c-0.078-0.021-0.158-0.043-0.236-0.065c-0.003-0.002-0.009-0.003-0.012-0.004
		c-0.005-0.001-0.009-0.003-0.012-0.004c-0.054-0.018-0.106-0.032-0.159-0.049c-0.085-0.027-0.171-0.057-0.255-0.087
		c-0.002,0-0.004,0-0.006-0.001c-0.001-0.002-0.005-0.002-0.006-0.003c-0.05-0.017-0.099-0.034-0.148-0.053
		c-0.099-0.036-0.197-0.075-0.294-0.114c-0.037-0.015-0.074-0.029-0.109-0.044c-0.001,0-0.004-0.002-0.004-0.002
		c-0.002-0.001-0.003-0.001-0.005-0.002c-0.132-0.057-0.263-0.115-0.393-0.179c-0.022-0.01-0.044-0.022-0.066-0.033
		c-0.106-0.052-0.212-0.105-0.314-0.16c-0.002-0.001-0.005-0.003-0.007-0.004c-0.001-0.001-0.004-0.002-0.006-0.004
		c-0.038-0.021-0.075-0.042-0.112-0.064c-0.005-0.001-0.009-0.004-0.012-0.005c-0.004-0.002-0.007-0.005-0.011-0.008
		c-0.077-0.042-0.154-0.086-0.23-0.132c-0.001-0.001-0.002-0.001-0.003-0.002c-0.001,0-0.001-0.002-0.004-0.002
		c-0.044-0.026-0.088-0.055-0.131-0.081c-0.004-0.003-0.007-0.005-0.012-0.008c-0.003-0.002-0.007-0.005-0.011-0.008
		c-0.068-0.042-0.137-0.085-0.203-0.131c-0.002,0-0.003-0.001-0.005-0.002c-0.001-0.001-0.002-0.003-0.005-0.004
		c-0.046-0.03-0.093-0.063-0.139-0.094c-0.001-0.002-0.002-0.003-0.005-0.004c-0.001-0.001-0.004-0.002-0.005-0.004
		c-0.067-0.046-0.133-0.094-0.2-0.142l-0.001-0.001c0,0-0.001-0.002-0.002-0.002c-0.045-0.032-0.089-0.066-0.135-0.1
		c-0.003-0.004-0.007-0.005-0.01-0.008c-0.003-0.004-0.007-0.006-0.01-0.009c-0.06-0.045-0.119-0.092-0.176-0.138
		c-0.003-0.004-0.008-0.006-0.012-0.009c-0.004-0.004-0.006-0.006-0.01-0.009c-0.044-0.035-0.087-0.069-0.13-0.106l0,0
		c-0.001,0-0.001-0.001-0.001-0.002c-0.062-0.052-0.124-0.104-0.183-0.158c-0.004-0.002-0.006-0.006-0.01-0.009
		c-0.003-0.001-0.005-0.003-0.008-0.006c-0.042-0.036-0.082-0.073-0.123-0.109c-0.065-0.061-0.13-0.123-0.193-0.186
		c-0.038-0.036-0.077-0.072-0.114-0.109c-0.001-0.002-0.002-0.003-0.004-0.004C9.802,35.833,9.801,35.831,9.8,35.83
		c-0.064-0.064-0.126-0.131-0.188-0.197c-0.01-0.011-0.021-0.021-0.03-0.031c-0.006-0.006-0.012-0.013-0.019-0.02
		c-0.019-0.02-0.038-0.041-0.056-0.061c-0.095-0.104-0.188-0.213-0.279-0.321l-0.001-0.001l0,0
		c-0.028-0.036-0.056-0.071-0.084-0.106c-0.061-0.076-0.122-0.152-0.181-0.23c0-0.001,0-0.001-0.001-0.001c0,0,0,0,0-0.001
		c-0.029-0.038-0.058-0.078-0.085-0.118c-0.005-0.006-0.009-0.012-0.014-0.017c-0.005-0.008-0.01-0.015-0.015-0.022
		c-0.046-0.063-0.092-0.127-0.136-0.19c-0.036-0.053-0.07-0.106-0.105-0.159c-0.042-0.064-0.085-0.131-0.126-0.197
		c-0.002-0.002-0.005-0.006-0.006-0.008c-0.001-0.003-0.002-0.004-0.004-0.007c-0.03-0.05-0.061-0.1-0.09-0.151
		c-0.001-0.001-0.002-0.002-0.002-0.004c-0.002-0.002-0.004-0.005-0.005-0.007c-0.039-0.067-0.078-0.135-0.116-0.202
		c-0.032-0.059-0.063-0.116-0.096-0.176c-0.035-0.068-0.072-0.139-0.106-0.209c-0.03-0.058-0.059-0.116-0.087-0.176l0,0
		c0-0.002-0.001-0.003-0.002-0.006c-0.031-0.065-0.062-0.133-0.091-0.2c-0.003-0.009-0.008-0.018-0.012-0.026
		c-0.001-0.005-0.005-0.011-0.007-0.016c-0.02-0.048-0.042-0.096-0.063-0.143c0-0.004-0.001-0.005-0.002-0.008
		c-0.003-0.005-0.004-0.009-0.005-0.012c-0.029-0.072-0.057-0.146-0.085-0.221c-0.004-0.007-0.006-0.015-0.01-0.021c0,0,0,0,0-0.002
		c-0.021-0.053-0.042-0.104-0.061-0.156c-0.033-0.094-0.064-0.188-0.096-0.282c-0.02-0.064-0.04-0.126-0.06-0.19
		c-0.004-0.012-0.006-0.022-0.01-0.034c-0.06-0.107-0.111-0.22-0.159-0.336c-0.01-0.024-0.017-0.05-0.027-0.076
		c-0.033-0.088-0.063-0.177-0.089-0.269c-0.01-0.037-0.02-0.075-0.028-0.111c-0.021-0.087-0.038-0.175-0.05-0.265
		c-0.006-0.035-0.013-0.072-0.017-0.108c-0.015-0.125-0.025-0.251-0.025-0.378v-9.575c0-0.133,0.011-0.264,0.027-0.395
		c0.004-0.036,0.011-0.072,0.016-0.109c0.016-0.098,0.036-0.194,0.06-0.29c0.008-0.032,0.015-0.063,0.024-0.095
		c0.072-0.252,0.175-0.491,0.303-0.713c0.009-0.016,0.019-0.032,0.028-0.046c0.061-0.103,0.128-0.201,0.199-0.296
		c0.007-0.009,0.014-0.019,0.021-0.027c0.166-0.213,0.358-0.405,0.571-0.57c0.001,0,0.002-0.001,0.003-0.002
		c0.106-0.082,0.219-0.158,0.336-0.228c0.001,0,0.001-0.001,0.002-0.001L8.639,7.336c-0.003-1.776,1.434-3.22,3.21-3.224
		c0.002,0,0.004,0,0.006,0c1.773,0,3.214,1.436,3.217,3.21l0.032-2.613c-0.003-1.777,1.434-3.22,3.21-3.225
		C18.316,1.485,18.317,1.485,18.32,1.485 M18.32,0.372L18.32,0.372h-0.005c-2.022,0.005-3.72,1.397-4.192,3.271
		C13.462,3.235,12.686,3,11.854,3c-1.164,0.002-2.25,0.455-3.068,1.275C7.971,5.094,7.523,6.183,7.525,7.339l0.021,10.092
		c-0.251,0.206-0.479,0.438-0.676,0.694c-0.006,0.007-0.018,0.022-0.025,0.032c-0.001,0.002-0.003,0.005-0.006,0.007
		c-0.098,0.129-0.188,0.263-0.268,0.397c-0.015,0.023-0.025,0.041-0.035,0.059c-0.178,0.306-0.314,0.63-0.411,0.965
		c-0.009,0.028-0.017,0.065-0.026,0.1l-0.005,0.021c-0.036,0.141-0.063,0.271-0.083,0.401l-0.002,0.015
		c-0.007,0.044-0.015,0.088-0.02,0.133c-0.023,0.185-0.034,0.358-0.034,0.526v9.575c0,0.158,0.01,0.325,0.032,0.507
		c0.005,0.043,0.011,0.084,0.018,0.124l0.004,0.024c0.018,0.121,0.042,0.241,0.07,0.355c0.01,0.046,0.023,0.099,0.038,0.151
		c0.033,0.116,0.071,0.234,0.118,0.358l0.007,0.02c0.01,0.026,0.02,0.054,0.029,0.08c0.051,0.126,0.104,0.24,0.158,0.348
		c0.016,0.048,0.032,0.097,0.046,0.145c0.036,0.105,0.07,0.21,0.106,0.313c0.017,0.05,0.034,0.092,0.052,0.135l0.016,0.042
		c0.001,0.004,0.002,0.009,0.005,0.012c0.002,0.005,0.005,0.012,0.006,0.015l0.02,0.051c0.024,0.064,0.05,0.13,0.076,0.194l0,0
		c0.005,0.013,0.01,0.024,0.015,0.035c0.014,0.032,0.027,0.063,0.042,0.093l0.021,0.05l0.013,0.03l0.03-0.013
		c0.001,0.009,0.002,0.018,0.005,0.024l-0.025,0.012c0.032,0.072,0.065,0.143,0.098,0.215c0.003,0.008,0.007,0.014,0.01,0.022
		c0.027,0.055,0.055,0.111,0.082,0.166l0.012,0.023c0.039,0.079,0.08,0.157,0.12,0.234c0.036,0.067,0.071,0.133,0.106,0.196
		c0.043,0.077,0.086,0.15,0.128,0.224c0.001,0.003,0.002,0.004,0.004,0.006c0.001,0.004,0.003,0.007,0.005,0.009
		c0.033,0.057,0.066,0.111,0.1,0.165c0.005,0.01,0.011,0.02,0.017,0.028c0.044,0.072,0.091,0.144,0.137,0.214l0.027,0.042
		c0.031,0.046,0.061,0.093,0.093,0.14c0.046,0.067,0.098,0.138,0.149,0.209l0.023,0.033c0.002,0.003,0.006,0.008,0.012,0.016
		l0.015,0.021c0.022,0.032,0.044,0.063,0.067,0.093c0.005,0.007,0.008,0.012,0.013,0.018l0,0c0.065,0.086,0.132,0.17,0.2,0.255
		l0.032,0.04c0.02,0.025,0.04,0.051,0.061,0.075c0.001,0.003,0.002,0.004,0.004,0.006c0.098,0.118,0.202,0.238,0.311,0.358
		c0.017,0.018,0.033,0.035,0.048,0.052l0.012,0.012c0.006,0.007,0.015,0.017,0.023,0.025c0.012,0.014,0.023,0.024,0.033,0.035
		l0.024,0.026C8.881,36.48,8.939,36.542,9,36.604c0.005,0.005,0.01,0.011,0.015,0.016c0.001,0.001,0.002,0.003,0.004,0.004
		c0.032,0.031,0.063,0.063,0.097,0.094l0.033,0.031l0.011,0.011c0.067,0.065,0.134,0.131,0.204,0.194
		c0.034,0.03,0.072,0.064,0.11,0.1l0.025,0.022c0.01,0.008,0.017,0.015,0.026,0.022c0.063,0.055,0.125,0.108,0.186,0.16
		c0.003,0.004,0.008,0.007,0.013,0.012l0,0c0.045,0.038,0.091,0.075,0.137,0.111c0.012,0.012,0.026,0.022,0.039,0.033
		c0.058,0.046,0.12,0.096,0.185,0.145c0.002,0.003,0.005,0.004,0.006,0.005l0,0c0.01,0.008,0.017,0.014,0.024,0.019
		c0.05,0.038,0.099,0.074,0.148,0.111c0.002,0.001,0.004,0.002,0.005,0.004c0.069,0.05,0.138,0.099,0.208,0.146
		c0.002,0.001,0.004,0.002,0.005,0.005c0.006,0.004,0.014,0.009,0.021,0.014l0,0c0.052,0.036,0.103,0.07,0.154,0.106
		c0.004,0.002,0.007,0.003,0.011,0.006c0.003,0.002,0.007,0.005,0.011,0.008c0.071,0.046,0.142,0.091,0.214,0.138
		c0.002,0.001,0.008,0.005,0.013,0.008c0.008,0.005,0.016,0.01,0.023,0.015h0.001c0.045,0.029,0.092,0.059,0.139,0.085
		c0,0.002,0.001,0.003,0.001,0.003c0.006,0.002,0.011,0.006,0.016,0.009c0.082,0.049,0.164,0.097,0.247,0.143
		c0.012,0.006,0.023,0.013,0.034,0.019l0.022,0.014c0.029,0.017,0.059,0.033,0.089,0.05c0.002,0.001,0.005,0.003,0.008,0.004
		c0.005,0.004,0.01,0.006,0.015,0.009c0.116,0.062,0.234,0.122,0.352,0.18c0.029,0.015,0.054,0.026,0.079,0.039
		c0.126,0.061,0.27,0.126,0.426,0.193c0.009,0.003,0.016,0.007,0.023,0.01c0.029,0.012,0.059,0.024,0.089,0.035l0.029,0.013
		c0.104,0.042,0.213,0.085,0.324,0.127c0.04,0.016,0.082,0.029,0.122,0.043l0.045,0.016c0.002,0.001,0.005,0.002,0.009,0.004
		c0.001,0,0.002,0.001,0.003,0.001c0.095,0.033,0.191,0.066,0.286,0.097c0.044,0.014,0.086,0.025,0.127,0.039l0.046,0.014
		c0.006,0.002,0.024,0.007,0.031,0.01c0.085,0.024,0.168,0.049,0.25,0.07c0.015,0.004,0.028,0.008,0.043,0.012
		c0.06,0.016,0.12,0.03,0.179,0.045c0.089,0.022,0.176,0.042,0.264,0.062c0.008,0.002,0.017,0.004,0.025,0.006
		c0.001,0,0.002,0,0.004,0c0.065,0.015,0.131,0.028,0.197,0.042c0.007,0.001,0.015,0.002,0.022,0.003
		c0.091,0.018,0.183,0.033,0.274,0.049l0.04,0.007c0.057,0.01,0.113,0.019,0.167,0.026c0.096,0.014,0.198,0.026,0.302,0.038
		l0.048,0.006c0.048,0.005,0.098,0.012,0.147,0.017c0.105,0.01,0.208,0.018,0.312,0.024c0.009,0.001,0.017,0.001,0.026,0.002
		c0.012,0,0.022,0.001,0.034,0.001l0.031,0.003c0.036,0.004,0.072,0.005,0.107,0.007c0.005,0,0.01,0,0.015,0.002
		c0.179,0.007,0.344,0.011,0.503,0.011h5.138h1.892c0.176,0,0.357-0.004,0.535-0.013c0.05-0.002,0.091-0.006,0.133-0.01l0.051-0.003
		l0.037-0.003c0.105-0.007,0.208-0.015,0.313-0.025c0.051-0.005,0.104-0.011,0.156-0.019l0.062-0.009l0.063-0.007
		c0.08-0.009,0.159-0.019,0.237-0.03c0.061-0.01,0.119-0.021,0.179-0.031l0.059-0.011l0.051-0.009
		c0.076-0.012,0.149-0.025,0.223-0.04c0.066-0.014,0.128-0.027,0.187-0.042l0.059-0.014l0.066-0.015
		c0.065-0.015,0.129-0.029,0.195-0.045c0.063-0.017,0.127-0.035,0.19-0.053l0.06-0.017l0.054-0.015
		c0.065-0.019,0.129-0.036,0.192-0.056c0.069-0.021,0.138-0.045,0.206-0.068l0.049-0.017l0.044-0.014
		c0.063-0.021,0.125-0.042,0.187-0.063c0.073-0.027,0.146-0.056,0.22-0.086l0.039-0.015l0.042-0.016
		c0.059-0.023,0.114-0.046,0.174-0.07c0.073-0.029,0.151-0.064,0.228-0.1l0.034-0.015l0.046-0.021
		c0.049-0.023,0.101-0.045,0.149-0.068c0.091-0.043,0.181-0.089,0.271-0.136l0.044-0.022c0.044-0.022,0.088-0.045,0.133-0.068
		c0.093-0.05,0.181-0.1,0.271-0.152l0.046-0.026c0.039-0.021,0.078-0.044,0.115-0.066c0.093-0.055,0.181-0.111,0.271-0.169
		l0.044-0.028c0.037-0.023,0.071-0.047,0.107-0.07c0.094-0.062,0.184-0.126,0.274-0.189l0.039-0.028
		c0.032-0.021,0.063-0.045,0.096-0.068c0.091-0.065,0.184-0.138,0.273-0.209l0.034-0.026c0.032-0.023,0.062-0.047,0.091-0.071
		c0.086-0.069,0.177-0.148,0.27-0.228l0.029-0.025c0.026-0.022,0.051-0.044,0.075-0.067c0.089-0.077,0.179-0.163,0.27-0.25
		l0.02-0.019l0.066-0.062c0.093-0.091,0.184-0.184,0.273-0.278l0.02-0.021c0.018-0.02,0.037-0.04,0.057-0.062
		c0.086-0.09,0.174-0.19,0.262-0.291l0.015-0.019l0.044-0.05c0.091-0.107,0.177-0.214,0.262-0.321l0.008-0.01l0.046-0.06
		c0.083-0.107,0.167-0.221,0.25-0.336l0.042-0.06c0.08-0.118,0.161-0.237,0.239-0.36l0.013-0.02l0.015-0.021
		c0.085-0.136,0.161-0.263,0.234-0.393l0.013-0.021l0.012-0.019c0.076-0.136,0.146-0.27,0.218-0.405l0.02-0.041
		c0.068-0.135,0.135-0.274,0.198-0.416c0.008-0.013,0.013-0.024,0.018-0.037c0.063-0.142,0.124-0.284,0.181-0.428
		c0.003-0.007,0.005-0.013,0.007-0.019l0.003-0.01c0.059-0.148,0.115-0.3,0.166-0.45c0-0.004,0.003-0.008,0.003-0.013
		c0.002-0.003,0.002-0.007,0.005-0.01c0.049-0.147,0.098-0.305,0.145-0.463c0.002-0.007,0.002-0.014,0.005-0.02l0,0
		c0.044-0.157,0.085-0.317,0.122-0.478c0.002-0.009,0.005-0.016,0.007-0.024c0.037-0.16,0.071-0.323,0.099-0.48
		c0.002-0.005,0.002-0.01,0.002-0.015l0.005-0.019c0.027-0.146,0.052-0.313,0.073-0.473c0.003-0.012,0.003-0.025,0.005-0.038
		c0.02-0.155,0.037-0.317,0.052-0.485l0.003-0.03c0.012-0.16,0.021-0.323,0.026-0.483c0-0.001,0-0.004,0-0.005l0,0l0.003-0.034
		c0.002-0.058,0.005-0.115,0.005-0.175v-0.134c0-0.007,0-0.018,0-0.03L34.018,13.38c-0.005-2.11-1.725-3.826-3.834-3.826
		c-0.572,0.001-1.123,0.125-1.622,0.358l-0.015-2.856C28.542,4.821,26.72,3,24.479,3c-0.137,0-0.274,0.007-0.411,0.021
		c-0.037,0.003-0.081,0.01-0.125,0.017c-0.09,0.012-0.176,0.024-0.262,0.041c-0.049,0.01-0.09,0.021-0.135,0.031l-0.021,0.005
		l-0.027,0.007c-0.065,0.016-0.132,0.033-0.195,0.053C23.25,3.19,23.206,3.206,23.16,3.222L23.138,3.23L23.12,3.236
		c-0.065,0.022-0.129,0.046-0.192,0.073c-0.042,0.016-0.091,0.039-0.14,0.062c-0.073,0.034-0.143,0.066-0.208,0.101
		c-0.029,0.016-0.062,0.033-0.093,0.052C21.974,1.708,20.298,0.372,18.32,0.372L18.32,0.372z"/>
</g>
</svg>
