<?xml version="1.0" encoding="utf-8"?>
<!-- Generator: Adobe Illustrator 16.0.0, SVG Export Plug-In . SVG Version: 6.00 Build 0)  -->
<!DOCTYPE svg PUBLIC "-//W3C//DTD SVG 1.1//EN" "http://www.w3.org/Graphics/SVG/1.1/DTD/svg11.dtd">
<svg version="1.1" id="Layer_1" xmlns="http://www.w3.org/2000/svg" xmlns:xlink="http://www.w3.org/1999/xlink" x="0px" y="0px"
	 width="40px" height="40px" viewBox="0 0 40 40" enable-background="new 0 0 40 40" xml:space="preserve">
<g id="Layer_1_1_">
</g>
<g id="Layer_1_2_">
</g>
<g id="Layer_3" display="none">
</g>
<g id="Layer_1_3_">
</g>
<g id="Layer_3_1_" display="none">
</g>
<g>
	<g>
		<path fill="#A0D814" d="M5.513,38.895c-2.572,0-4.665-2.093-4.665-4.665V9.549c0-2.572,2.092-4.665,4.665-4.665h24.681
			c2.572,0,4.665,2.092,4.665,4.665v24.681c0,2.572-2.093,4.665-4.665,4.665H5.513z"/>
		<path fill="#5EA40B" d="M30.193,5.604c2.175,0,3.944,1.77,3.944,3.945v24.681c0,2.175-1.77,3.944-3.944,3.944H5.513
			c-2.175,0-3.945-1.77-3.945-3.944V9.549c0-2.175,1.77-3.945,3.945-3.945H30.193 M30.193,4.164H5.513
			c-2.962,0-5.385,2.423-5.385,5.385v24.681c0,2.962,2.423,5.385,5.385,5.385h24.681c2.962,0,5.385-2.423,5.385-5.385V9.549
			C35.578,6.587,33.155,4.164,30.193,4.164L30.193,4.164z"/>
	</g>
	<g>
		<g>
			<path fill="#B1FFFF" stroke="#6DA2FF" stroke-width="1.08" stroke-miterlimit="10" d="M23.986,12.64V4.423
				c0-1.98,1.619-3.6,3.6-3.6h8.217c1.98,0,3.601,1.619,3.601,3.6v8.217c0,1.98-1.62,3.6-3.601,3.6H23.986V12.64z"/>
		</g>
		<g>
			<g>
				<g>
					
						<path fill-rule="evenodd" clip-rule="evenodd" fill="#1950A7" stroke="#001E6B" stroke-width="0.2127" stroke-linecap="round" stroke-linejoin="round" stroke-miterlimit="10" d="
						M31.192,4.394h-5.225c-0.066,0-0.121,0.055-0.121,0.121v0.999c0,0.066,0.055,0.121,0.121,0.121h1.901v5.034
						c0,0.066,0.053,0.121,0.121,0.121h1.156c0.066,0,0.121-0.055,0.121-0.121V5.635h1.925c0.067,0,0.121-0.055,0.121-0.121V4.515
						C31.313,4.448,31.26,4.394,31.192,4.394z"/>
					
						<path fill-rule="evenodd" clip-rule="evenodd" fill="#1950A7" stroke="#001E6B" stroke-width="0.2127" stroke-linecap="round" stroke-linejoin="round" stroke-miterlimit="10" d="
						M36.969,6.6h-0.972h-0.155c-0.193,0-0.508,0-0.591,0c-0.122,0-0.207,0.037-0.253,0.15c-0.016,0.039-0.063,0.154-0.119,0.29
						c-0.004,0.007-0.009,0.014-0.012,0.021L33.609,9.8l-1.27-2.738c-0.003-0.009-0.008-0.016-0.014-0.023
						c-0.055-0.135-0.102-0.249-0.117-0.288c-0.047-0.113-0.131-0.15-0.253-0.15c-0.082,0-0.39,0-0.584,0h-0.161h-0.965
						c-0.066,0-0.121,0.055-0.121,0.121v6.152c0,0.066,0.055,0.121,0.121,0.121h1.126c0.067,0,0.121-0.055,0.121-0.121V8.376
						l1.502,3.24c0.025,0.055,0.085,0.066,0.146,0.066s0.987,0,0.987,0v-0.001c0.044-0.003,0.085-0.028,0.104-0.069l1.489-3.244
						v4.505c0,0.066,0.055,0.121,0.121,0.121h1.127c0.066,0,0.121-0.055,0.121-0.121V6.721C37.09,6.654,37.035,6.6,36.969,6.6z"/>
				</g>
			</g>
		</g>
	</g>
	<g>
		
			<path fill="#FFFFFF" stroke="#579800" stroke-width="0.72" stroke-linecap="round" stroke-linejoin="round" stroke-miterlimit="10" d="
			M29.484,19.218l-4.918-0.661l-3.887-3.472c-0.191-0.171-0.929-0.911-2.727-0.911c-1.795,0-2.467,0.622-2.699,0.83l-3.332,2.983
			l-3.063-2.878c-0.563-0.528-1.447-0.502-1.976,0.061c-0.53,0.563-0.502,1.448,0.059,1.977l0.615,0.578l3.382,3.18
			c0.269,0.253,0.613,0.38,0.958,0.38c0.333,0,0.667-0.119,0.933-0.356l1.154-1.034v4.892l-5.763,5.758
			c-0.689-0.635-1.763-0.62-2.43,0.049l2.243,2.244l1.055,1.056l7.941-7.933h1.904v10.526h1.163h1.821h1.691
			c0-0.948-0.752-1.72-1.691-1.753v-8.773h0.002v-6.014l1.1,0.983c0.21,0.187,0.471,0.306,0.746,0.343l5.344,0.719
			c0.064,0.008,0.126,0.012,0.189,0.012c0.688,0,1.289-0.509,1.383-1.211C30.787,20.025,30.25,19.321,29.484,19.218z"/>
		
			<circle fill="#FFFFFF" stroke="#579800" stroke-width="0.72" stroke-linecap="round" stroke-linejoin="round" stroke-miterlimit="10" cx="17.953" cy="11.467" r="2.467"/>
	</g>
</g>
</svg>
