<?xml version="1.0" encoding="utf-8"?>
<!-- Generator: Adobe Illustrator 16.0.0, SVG Export Plug-In . SVG Version: 6.00 Build 0)  -->
<!DOCTYPE svg PUBLIC "-//W3C//DTD SVG 1.1//EN" "http://www.w3.org/Graphics/SVG/1.1/DTD/svg11.dtd">
<svg version="1.1" id="Layer_1" xmlns="http://www.w3.org/2000/svg" xmlns:xlink="http://www.w3.org/1999/xlink" x="0px" y="0px"
	 width="40px" height="40px" viewBox="0 0 40 40" enable-background="new 0 0 40 40" xml:space="preserve">
<g id="Layer_1_1_">
</g>
<g>
	<g>
		<path fill="#4DCCBE" d="M39.891,35.031c0,2.672-2.188,4.859-4.861,4.859H4.97c-2.673,0-4.861-2.188-4.861-4.859V4.971
			c0-2.673,2.188-4.861,4.861-4.861h30.059c2.674,0,4.861,2.188,4.861,4.861V35.031z"/>
		<path fill="#9FE3DC" d="M35.029,1.876c1.705,0,3.093,1.388,3.093,3.094v30.061c0,1.703-1.388,3.091-3.093,3.091H4.97
			c-1.706,0-3.094-1.388-3.094-3.091V4.971c0-1.707,1.388-3.094,3.094-3.094H35.029 M35.029,0.109H4.97
			c-2.673,0-4.861,2.188-4.861,4.861v30.061c0,2.672,2.188,4.859,4.861,4.859h30.059c2.674,0,4.861-2.188,4.861-4.859V4.971
			C39.891,2.297,37.703,0.109,35.029,0.109L35.029,0.109z"/>
	</g>
	<g>
		<path fill="#FFFFFF" d="M29.792,33.087H7.254c-0.61,0-1.105-0.494-1.105-1.104V11.83c0-0.61,0.495-1.105,1.105-1.105h22.538
			c0.611,0,1.106,0.495,1.106,1.105v20.152C30.898,32.593,30.403,33.087,29.792,33.087z M8.359,30.877h20.33V12.935H8.359V30.877z"
			/>
		<path fill="#FFFFFF" d="M33.837,29.275c-0.609,0-1.104-0.495-1.104-1.104V9.123H11.298c-0.61,0-1.105-0.495-1.105-1.105
			c0-0.61,0.495-1.105,1.105-1.105h22.539c0.61,0,1.104,0.495,1.104,1.105v20.154C34.941,28.78,34.447,29.275,33.837,29.275z"/>
		<path fill="#FFFFFF" d="M14.172,26.447c-0.177,0-0.357-0.056-0.513-0.165c-0.397-0.285-0.489-0.838-0.205-1.233l5.021-7.019
			c0.167-0.233,0.454-0.37,0.726-0.37c0.288,0.002,0.556,0.145,0.72,0.381l4.491,6.486c0.278,0.402,0.178,0.953-0.224,1.229
			c-0.401,0.28-0.952,0.18-1.229-0.223l-3.776-5.456l-4.291,5.999C14.72,26.317,14.448,26.447,14.172,26.447z"/>
		<g>
			<path fill="#00AC95" d="M16.294,25.562c-0.001,1.327-1.074,2.4-2.399,2.397c-1.326,0-2.398-1.07-2.399-2.397
				c0.001-1.322,1.073-2.398,2.399-2.398C15.22,23.165,16.294,24.239,16.294,25.562z"/>
			<g>
				<path fill="#FFFFFF" d="M13.896,28.158L13.896,28.158c-1.433,0-2.597-1.164-2.597-2.595c0-1.434,1.165-2.599,2.597-2.599
					c1.432,0,2.598,1.167,2.598,2.597C16.493,26.994,15.328,28.158,13.896,28.158z M13.896,23.362c-1.212,0-2.199,0.987-2.2,2.201
					c0.001,1.212,0.988,2.2,2.2,2.2l0,0c1.213,0,2.199-0.988,2.2-2.202C16.095,24.35,15.108,23.362,13.896,23.362z"/>
				<path fill="#FFFFFF" d="M13.896,28.381c-1.553,0-2.818-1.265-2.818-2.817c0-1.555,1.264-2.819,2.818-2.819
					s2.819,1.265,2.819,2.817C16.713,27.116,15.449,28.381,13.896,28.381z M13.896,23.583c-1.091,0-1.978,0.891-1.979,1.98
					c0.001,1.091,0.888,1.978,1.979,1.978c1.09,0,1.979-0.887,1.979-1.979C15.875,24.471,14.987,23.583,13.896,23.583z"/>
			</g>
		</g>
		<g>
			<path fill="#00AC95" d="M26.304,25.562c0,1.327-1.074,2.4-2.4,2.397c-1.323,0-2.396-1.07-2.396-2.397
				c0.001-1.322,1.073-2.398,2.396-2.398C25.229,23.165,26.304,24.239,26.304,25.562z"/>
			<g>
				<path fill="#FFFFFF" d="M23.904,28.158L23.904,28.158c-1.432,0-2.596-1.164-2.596-2.595c0-1.434,1.164-2.599,2.595-2.599
					c1.436,0,2.6,1.167,2.6,2.597C26.503,26.994,25.338,28.158,23.904,28.158z M23.903,23.362c-1.21,0-2.196,0.987-2.196,2.201
					c0,1.212,0.986,2.2,2.196,2.2h0.001c1.215,0,2.2-0.988,2.2-2.202C26.104,24.35,25.119,23.362,23.903,23.362z"/>
				<path fill="#FFFFFF" d="M23.904,28.381c-1.552,0-2.817-1.265-2.817-2.817c0-1.555,1.265-2.819,2.816-2.819
					c1.556,0,2.821,1.265,2.821,2.817C26.725,27.116,25.459,28.381,23.904,28.381z M23.903,23.583c-1.089,0-1.976,0.891-1.976,1.98
					c0,1.091,0.887,1.978,1.976,1.978c1.094,0,1.98-0.887,1.981-1.979C25.885,24.471,24.997,23.583,23.903,23.583z"/>
			</g>
		</g>
		<g>
			<circle fill="#FF6661" cx="19.195" cy="18.096" r="2.399"/>
			<g>
				<path fill="#FFFFFF" d="M19.195,20.69L19.195,20.69c-1.433,0-2.598-1.164-2.598-2.595c0-1.434,1.165-2.599,2.597-2.599
					s2.599,1.166,2.599,2.599C21.792,19.527,20.626,20.69,19.195,20.69z M19.194,15.895c-1.212,0-2.198,0.987-2.199,2.201
					c0.001,1.212,0.987,2.196,2.199,2.196h0.001c1.213,0,2.199-0.984,2.201-2.197C21.396,16.882,20.408,15.896,19.194,15.895z"/>
				<path fill="#FFFFFF" d="M19.195,20.912c-1.554,0-2.818-1.264-2.819-2.816c0.001-1.555,1.265-2.819,2.818-2.819
					c1.554,0,2.819,1.266,2.819,2.819C22.013,19.648,20.748,20.912,19.195,20.912z M19.193,16.116
					c-1.09,0.001-1.977,0.889-1.978,1.98c0.001,1.089,0.888,1.977,1.979,1.977s1.979-0.888,1.98-1.978
					C21.174,17.004,20.286,16.117,19.193,16.116L19.193,16.116z"/>
			</g>
		</g>
	</g>
</g>
</svg>
